<?xml version="1.0" encoding="utf-8" ?>
<!-- Generator: Adobe Illustrator 16.0.0, SVG Export Plug-In . SVG Version: 6.00 Build 0)  -->
<!DOCTYPE svg PUBLIC "-//W3C//DTD SVG 1.1//EN" "http://www.w3.org/Graphics/SVG/1.1/DTD/svg11.dtd">
<svg version="1.1" id="图层_1" shape-rendering="geometricPrecision" text-rendering="geometricPrecision" xmlns="http://www.w3.org/2000/svg" xmlns:xlink="http://www.w3.org/1999/xlink" x="0px" y="0px" width="820px" height="520px" viewBox="0 0 820 520" enable-background="new 0 0 820 520" xml:space="preserve">
	<style>
		.up-animation {
			animation: mymove 3s ease-in-out infinite;
		}
		@keyframes mymove {
			0% {
				transform: translate(0px, 0px);
			}
			50% {
				transform: translate(0px, -30px);
			}
			100% {
				transform: translate(0px, 0px);
			}
		}
		.up-animation02 {
			animation: mymove 2s ease-in-out infinite;
		}
		@keyframes mymove {
			0% {
				transform: translate(0px, 0px);
			}
			50% {
				transform: translate(0px, -5px);
			}
			100% {
				transform: translate(0px, 0px);
			}
		}
		.flicker-animation {
			animation-name: flicker;
			animation-duration: 2ms;
			animation-timing-function: ease-in-out;
			animation-iteration-count: infinite;
			animation-direction: alternate;
		}
		@keyframes flicker {
			0% {
				transform: rotate(-0.02deg);
			}
			20% {
				transform: rotate(0.02deg);
			}
			40% {
				transform: rotate(-0.02deg);
			}
			60% {
				transform: rotate(0.02deg)
			}
			80% {
				transform: rotate(-0.02deg)
			}
			100% {
				transform: rotate(0.02deg);
			}
		}
		.flr-animation {
			-webkit-animation: move 4s ease-in-out infinite;
			animation: move 4s ease-in-out infinite;
		}
		@-webkit-keyframes move {
			0% {
				transform: translate(-3px)
			}
			25% {
				transform: translate(3px)
			}
			50% {
				transform: translate(-3px)
			}
			75% {
				transform: translate(3px)
			}
			100% {
				transform: translate(-3px)
			}
		}
	</style>
	<g>
		<g>
			<path id="SVGID_4_" fill="#FFFFFF" d="M258.553,396.758c1.681,0.961,3.03,3.223,3.008,5.059c-0.025,1.83-1.403,2.541-3.088,1.584
			c-1.685-0.948-3.03-3.215-3.009-5.045c0.02-1.293,0.71-2.029,1.705-2.017C257.585,396.346,258.057,396.477,258.553,396.758" /> </g>
		<g>
			<g>
				<g>
					<g>
						<g>
							<g>
								<defs>
									<path id="SVGID_5_" d="M258.553,396.758c1.681,0.961,3.03,3.223,3.008,5.059c-0.025,1.83-1.403,2.541-3.088,1.584
									c-1.685-0.948-3.03-3.215-3.009-5.045c0.02-1.293,0.71-2.029,1.705-2.017C257.585,396.346,258.057,396.477,258.553,396.758" /> </defs>
								<clipPath id="SVGID_6_">
									<use xlink:href="#SVGID_5_" overflow="visible" /> </clipPath>
								<polygon clip-path="url(#SVGID_6_)" fill="#FFFFFF" points="252.707,403.313 260.851,406.229 264.312,397.369 
								256.173,394.456 							" /> </g>
						</g>
					</g>
				</g>
			</g>
		</g>
	</g>
	<g>
		<g>
			<g>
				<path id="SVGID_16_" opacity="0.1" fill="#CAD0E6" enable-background="new    " d="M548.528,318.871
				c71.979,40.682,71.249,105.878-1.627,145.612c-72.875,39.739-190.299,38.969-262.271-1.729
				c-71.974-40.686-71.24-105.877,1.625-145.61c36.44-19.875,84.018-29.617,131.479-29.306
				C465.2,288.157,512.547,298.521,548.528,318.871" /> </g>
			<g>
				<g>
					<g>
						<path id="SVGID_476_" fill="#CAD0E6" d="M548.528,318.871c71.979,40.682,71.249,105.878-1.627,145.612
						c-72.875,39.739-190.299,38.969-262.271-1.729c-71.974-40.686-71.24-105.877,1.625-145.61
						c36.44-19.875,84.018-29.617,131.479-29.306C465.2,288.157,512.547,298.521,548.528,318.871" /> </g>
					<g>
						<g>
							<g>
								<g>
									<defs>
										<path id="SVGID_7_" d="M548.528,318.871c71.979,40.682,71.249,105.878-1.627,145.612
										c-72.875,39.739-190.299,38.969-262.271-1.729c-71.974-40.686-71.24-105.877,1.625-145.61
										c36.44-19.875,84.018-29.617,131.479-29.306C465.2,288.157,512.547,298.521,548.528,318.871" /> </defs>
									<clipPath id="SVGID_8_">
										<use xlink:href="#SVGID_7_" overflow="visible" /> </clipPath>
									<polygon clip-path="url(#SVGID_8_)" fill="#CAD0E6" points="617.984,255.329 193.853,288.012 215.133,536.344 
									639.262,503.678 								" /> </g>
							</g>
						</g>
					</g>
				</g>
			</g>
		</g>
		<g>
			<g>
				<linearGradient id="SVGID_9_" gradientUnits="userSpaceOnUse" x1="1138.9033" y1="2131.9629" x2="1987.1016" y2="2131.9629" gradientTransform="matrix(-0.4271 -0.0026 -0.0026 0.4271 1089.2773 -508.2937)">
					<stop offset="0" style="stop-color:#128BEB" />
					<stop offset="1" style="stop-color:#126BEB" /> </linearGradient>
				<path id="SVGID_14_" fill="url(#SVGID_9_)" d="M597.484,370.342c-0.06,25.446-18.026,50.825-53.831,69.997
				c-1.063,0.578-2.146,1.136-3.243,1.692c-0.355,0.186-0.729,0.372-1.094,0.554c-0.729,0.36-1.46,0.729-2.2,1.091
				c-0.438,0.22-0.888,0.424-1.322,0.636c-0.675,0.314-1.354,0.64-2.034,0.95c-0.477,0.218-0.954,0.439-1.436,0.649
				c-0.659,0.297-1.313,0.599-1.975,0.886c-0.501,0.22-0.996,0.438-1.508,0.648c-0.65,0.279-1.304,0.564-1.961,0.839
				c-0.512,0.217-1.022,0.422-1.544,0.634c-0.651,0.27-1.317,0.538-1.979,0.795c-0.521,0.21-1.04,0.427-1.564,0.617
				c-0.67,0.257-1.336,0.521-2.018,0.764c-0.521,0.209-1.052,0.402-1.571,0.604c-0.239,0.082-0.487,0.18-0.734,0.275
				c-0.25,0.088-0.51,0.166-0.761,0.269c-1.279,0.458-2.572,0.908-3.86,1.354c-0.36,0.122-0.717,0.242-1.069,0.363
				c-1.6,0.532-3.206,1.054-4.832,1.56c-0.356,0.117-0.725,0.229-1.09,0.337c-1.326,0.409-2.65,0.806-3.988,1.193
				c-0.444,0.126-0.895,0.25-1.34,0.386c-1.654,0.473-3.319,0.926-5,1.362c-0.025,0.007-0.059,0.021-0.084,0.025
				c-0.247,0.058-0.498,0.115-0.75,0.188c-1.173,0.298-2.346,0.595-3.521,0.889c-0.52,0.129-1.035,0.248-1.545,0.365
				c-0.966,0.224-1.92,0.451-2.882,0.673c-0.574,0.128-1.153,0.261-1.73,0.391c-0.918,0.198-1.84,0.388-2.761,0.583
				c-0.583,0.134-1.179,0.251-1.769,0.369c-0.943,0.185-1.886,0.381-2.818,0.558c-0.385,0.076-0.756,0.152-1.137,0.221
				c-0.198,0.039-0.406,0.068-0.604,0.123c-0.822,0.139-1.646,0.289-2.467,0.437c-0.619,0.104-1.242,0.228-1.859,0.331
				c-0.847,0.139-1.7,0.282-2.552,0.42c-0.601,0.096-1.19,0.191-1.792,0.286c-0.917,0.146-1.832,0.272-2.75,0.41
				c-0.54,0.08-1.074,0.159-1.619,0.233c-1.104,0.169-2.221,0.313-3.331,0.455c-0.335,0.039-0.658,0.089-0.99,0.13
				c-0.021,0.002-0.046,0.002-0.068,0.011c-1.268,0.158-2.554,0.317-3.821,0.457c-0.169,0.021-0.333,0.037-0.495,0.063
				c-1.448,0.163-2.891,0.311-4.339,0.455c-0.456,0.035-0.915,0.089-1.371,0.127c-0.993,0.101-1.983,0.188-2.981,0.271
				c-0.575,0.06-1.151,0.094-1.73,0.146c-0.875,0.064-1.756,0.142-2.631,0.191l-0.179,0.021c-0.554,0.043-1.118,0.07-1.673,0.104
				c-0.846,0.063-1.692,0.125-2.54,0.16c-0.643,0.047-1.277,0.068-1.918,0.111c-0.818,0.048-1.646,0.079-2.473,0.125
				c-0.661,0.021-1.321,0.048-1.979,0.069c-0.804,0.046-1.612,0.072-2.426,0.098c-0.669,0.021-1.341,0.027-2.018,0.049
				c-0.803,0.025-1.591,0.043-2.392,0.059c-0.141-0.007-0.28,0.003-0.426,0.009c-0.494,0.016-0.988,0.018-1.483,0.021
				c-0.866,0.006-1.731,0.018-2.601,0.021c-0.651,0.011-1.311,0.006-1.971,0c-0.841,0-1.689,0-2.525-0.007
				c-0.674-0.009-1.338-0.02-2.011-0.023c-0.828-0.017-1.663-0.032-2.495-0.049c-0.675-0.014-1.354-0.026-2.022-0.051
				c-0.827-0.022-1.646-0.05-2.473-0.07c-0.32-0.014-0.643-0.021-0.969-0.039c-0.323-0.015-0.651-0.034-0.979-0.053
				c-0.979-0.029-1.952-0.079-2.934-0.131c-0.604-0.031-1.217-0.058-1.827-0.103c-1.033-0.041-2.06-0.112-3.091-0.18
				c-0.541-0.049-1.09-0.073-1.633-0.109c-1.308-0.091-2.609-0.204-3.915-0.293c-0.262-0.033-0.521-0.059-0.781-0.073
				c-1.56-0.136-3.119-0.278-4.681-0.427c-0.072-0.021-0.155-0.021-0.23-0.021c-0.258-0.021-0.507-0.061-0.766-0.092
				c-1.435-0.146-2.865-0.291-4.297-0.47c-0.521-0.06-1.042-0.122-1.564-0.183c-1.394-0.178-2.776-0.355-4.165-0.538
				c-0.363-0.051-0.733-0.094-1.103-0.153c-1.714-0.229-3.418-0.489-5.126-0.738c-0.419-0.07-0.828-0.14-1.245-0.203
				c-1.334-0.224-2.657-0.443-3.979-0.67c-0.284-0.046-0.565-0.088-0.847-0.144c-0.29-0.041-0.567-0.104-0.854-0.157
				c-0.785-0.146-1.562-0.271-2.338-0.429c-0.646-0.119-1.299-0.24-1.947-0.373c-0.779-0.146-1.563-0.304-2.336-0.469
				c-0.646-0.132-1.286-0.257-1.925-0.396c-0.786-0.164-1.564-0.328-2.344-0.495c-0.628-0.138-1.262-0.283-1.878-0.418
				c-0.794-0.187-1.587-0.38-2.382-0.554c-0.602-0.142-1.207-0.279-1.806-0.435c-0.817-0.197-1.627-0.403-2.438-0.604
				c-0.577-0.146-1.146-0.285-1.718-0.438c-0.874-0.221-1.738-0.464-2.593-0.689c-0.513-0.142-1.019-0.271-1.521-0.407
				c-1.059-0.293-2.104-0.598-3.146-0.896c-0.313-0.089-0.623-0.173-0.932-0.262c-1.343-0.394-2.688-0.813-4.021-1.229
				c-0.02-0.003-0.041,0-0.063-0.014c-0.1-0.027-0.201-0.074-0.294-0.091c-1.475-0.475-2.939-0.942-4.396-1.436
				c-0.453-0.158-0.911-0.309-1.368-0.462c-1.217-0.42-2.422-0.842-3.623-1.274c-0.379-0.132-0.765-0.271-1.146-0.396
				c-1.523-0.569-3.044-1.146-4.546-1.729c-0.308-0.112-0.604-0.245-0.907-0.361c-1.222-0.479-2.439-0.979-3.646-1.479
				c-0.438-0.175-0.874-0.361-1.312-0.553c-1.239-0.526-2.464-1.063-3.681-1.604c-0.254-0.11-0.517-0.221-0.769-0.335
				c-1.434-0.648-2.861-1.32-4.268-2.003c-0.376-0.18-0.737-0.354-1.109-0.542c-1.086-0.521-2.16-1.067-3.231-1.621
				c-0.397-0.195-0.802-0.403-1.199-0.605c-1.383-0.72-2.749-1.453-4.101-2.207c-0.74-0.406-1.478-0.825-2.202-1.242
				c-0.17-0.099-0.333-0.19-0.494-0.283c-0.567-0.335-1.118-0.663-1.676-0.997c-0.503-0.3-1.009-0.59-1.501-0.896
				c-0.548-0.339-1.087-0.679-1.628-1.016c-0.482-0.304-0.969-0.605-1.444-0.913c-0.535-0.339-1.055-0.685-1.57-1.021
				c-0.473-0.315-0.941-0.626-1.399-0.938c-0.517-0.347-1.02-0.688-1.525-1.051c-0.443-0.305-0.896-0.623-1.333-0.923
				c-0.5-0.362-0.985-0.719-1.484-1.081c-0.423-0.313-0.857-0.625-1.276-0.933c-0.481-0.37-0.954-0.733-1.429-1.102
				c-0.408-0.314-0.822-0.636-1.22-0.948c-0.471-0.373-0.927-0.748-1.392-1.123c-0.383-0.313-0.776-0.633-1.153-0.935
				c-0.461-0.396-0.906-0.783-1.357-1.178c-0.315-0.27-0.643-0.537-0.957-0.816c-0.056-0.03-0.105-0.096-0.159-0.137
				c-0.116-0.103-0.232-0.216-0.354-0.316c-0.594-0.521-1.176-1.061-1.75-1.59c-0.158-0.146-0.318-0.303-0.476-0.455
				c-0.655-0.608-1.299-1.228-1.93-1.846c-0.102-0.106-0.204-0.205-0.304-0.309c-0.549-0.546-1.088-1.107-1.607-1.648
				c-0.146-0.149-0.296-0.3-0.435-0.453c-0.599-0.625-1.18-1.252-1.748-1.894c-0.096-0.101-0.186-0.199-0.27-0.302
				c-0.497-0.563-0.979-1.117-1.452-1.674c-0.134-0.162-0.269-0.317-0.398-0.471c-0.099-0.131-0.194-0.234-0.29-0.354
				c-0.42-0.507-0.832-1.019-1.235-1.53c-0.084-0.097-0.168-0.214-0.255-0.334c-0.516-0.661-1.02-1.32-1.512-1.984
				c-0.027-0.033-0.054-0.067-0.071-0.105c-0.485-0.646-0.95-1.307-1.401-1.979c-0.062-0.082-0.123-0.168-0.181-0.261
				c-0.449-0.646-0.876-1.313-1.301-1.976c-0.076-0.115-0.153-0.229-0.231-0.36c-0.355-0.567-0.708-1.134-1.042-1.702
				c-0.039-0.064-0.075-0.127-0.104-0.188c-0.288-0.479-0.55-0.949-0.814-1.443c-0.172-0.295-0.349-0.592-0.512-0.902
				c-0.294-0.547-0.572-1.102-0.844-1.646c-0.123-0.237-0.252-0.475-0.369-0.706c-0.389-0.792-0.755-1.578-1.104-2.374
				c-0.053-0.125-0.099-0.239-0.148-0.359c-0.293-0.676-0.574-1.345-0.842-2.021c-0.013-0.025-0.024-0.051-0.034-0.077
				c-0.114-0.308-0.215-0.599-0.326-0.896c-0.172-0.465-0.354-0.926-0.512-1.385c-0.12-0.343-0.223-0.688-0.338-1.029
				c-0.143-0.443-0.292-0.893-0.427-1.338c-0.11-0.354-0.204-0.703-0.304-1.063c-0.122-0.43-0.251-0.868-0.361-1.305
				c-0.09-0.359-0.172-0.73-0.258-1.09c-0.104-0.441-0.208-0.857-0.295-1.295c-0.016-0.08-0.037-0.158-0.052-0.23
				c-0.063-0.287-0.103-0.564-0.161-0.848c-0.079-0.444-0.167-0.881-0.239-1.32c-0.063-0.359-0.113-0.73-0.165-1.109
				c-0.062-0.422-0.131-0.855-0.185-1.285c-0.041-0.371-0.079-0.742-0.114-1.119c-0.044-0.43-0.088-0.854-0.122-1.293
				c-0.028-0.367-0.052-0.74-0.072-1.112c-0.026-0.433-0.046-0.855-0.061-1.284c-0.002-0.141-0.016-0.273-0.018-0.413
				c-0.018-0.503-0.018-1.005-0.018-1.502l0.095-33.322c-0.002,0.636,0.018,0.384,0.035,1.021c0.012,0.43,0.041-0.031,0.061,0.395
				c0.027,0.378,0.049-1.03,0.074-0.655c0.034,0.438,0.077-4.473,0.119-4.043c0.04,0.379,0.078,0.738,0.121,1.104
				c0.052,0.438,0.115,0.877,0.179,1.311c0.051,0.358,0.099,0.729,0.166,1.1c0.072,0.438,0.158,0.875,0.244,1.313
				c0.065,0.372,0.13,0.732,0.208,1.088c0.089,0.433,0.196,0.859,0.296,1.297c0.084,0.354,0.162,0.715,0.261,1.084
				c0.113,0.437,0.234,0.863,0.363,1.309c0.093,0.354,0.19,0.712,0.295,1.063c0.141,0.448,0.286,0.894,0.435,1.338
				c0.107,0.346,0.22,0.684,0.335,1.033c0.165,0.465,0.339,0.918,0.513,1.387c0.123,0.322,0.235,0.646,0.362,0.97
				c0.265,0.664,0.549,1.351,0.832,2.021c0.059,0.117,0.101,0.239,0.161,0.357c0.346,0.797,0.72,1.579,1.104,2.374
				c0.125,0.243,0.247,0.476,0.372,0.728c0.276,0.539,0.548,1.09,0.842,1.625c0.167,0.306,0.339,0.619,0.51,0.916
				c0.271,0.484,0.532,0.963,0.812,1.438c0.376,0.635,0.754,1.266,1.15,1.895c0.077,0.123,0.153,0.234,0.233,0.364
				c0.415,0.653,0.854,1.317,1.294,1.968c0.061,0.094,0.124,0.182,0.183,0.271c0.456,0.653,0.917,1.313,1.4,1.969
				c0.018,0.05,0.047,0.08,0.073,0.11c0.489,0.673,0.993,1.337,1.518,1.984c0.081,0.107,0.166,0.228,0.25,0.336
				c0.495,0.625,1.005,1.256,1.523,1.868c0.137,0.162,0.267,0.317,0.393,0.474c0.483,0.564,0.964,1.129,1.457,1.688
				c0.092,0.093,0.177,0.195,0.264,0.302c0.583,0.629,1.162,1.268,1.757,1.893c0.139,0.162,0.285,0.313,0.435,0.459
				c0.525,0.547,1.06,1.095,1.605,1.633c0.1,0.107,0.204,0.214,0.304,0.313c0.635,0.627,1.277,1.244,1.936,1.857
				c0.154,0.152,0.311,0.305,0.467,0.449c0.576,0.527,1.163,1.061,1.758,1.599c0.115,0.103,0.235,0.203,0.357,0.312
				c0.358,0.32,0.74,0.646,1.11,0.968c0.448,0.377,0.894,0.776,1.349,1.157c0.387,0.313,0.776,0.621,1.163,0.938
				c0.459,0.382,0.917,0.765,1.393,1.128c0.4,0.313,0.811,0.627,1.226,0.94c0.465,0.371,0.94,0.733,1.413,1.104
				c0.428,0.314,0.862,0.614,1.292,0.938c0.487,0.354,0.977,0.718,1.471,1.064c0.445,0.318,0.895,0.623,1.343,0.939
				c0.508,0.352,1.009,0.7,1.522,1.05c0.456,0.31,0.928,0.617,1.395,0.923c0.519,0.346,1.04,0.688,1.568,1.026
				c0.479,0.305,0.972,0.604,1.457,0.912c0.536,0.338,1.074,0.672,1.618,1.009c0.498,0.307,1,0.6,1.504,0.896
				c0.556,0.336,1.108,0.67,1.676,0.983c0.893,0.521,1.783,1.037,2.701,1.544c1.349,0.743,2.717,1.471,4.102,2.195
				c0.391,0.207,0.79,0.414,1.193,0.626c1.071,0.538,2.146,1.085,3.239,1.61c0.364,0.184,0.726,0.363,1.099,0.541
				c1.411,0.688,2.833,1.354,4.281,2c0.248,0.115,0.504,0.229,0.762,0.34c1.211,0.549,2.438,1.074,3.679,1.602
				c0.438,0.188,0.876,0.371,1.313,0.561c1.207,0.492,2.426,0.99,3.642,1.474c0.307,0.121,0.604,0.251,0.917,0.356
				c1.498,0.599,3.019,1.168,4.544,1.722c0.381,0.139,0.769,0.271,1.146,0.414c1.202,0.43,2.403,0.85,3.622,1.271
				c0.456,0.146,0.906,0.313,1.361,0.463c1.459,0.483,2.926,0.959,4.396,1.428c0.12,0.046,0.241,0.074,0.364,0.117
				c1.327,0.41,2.668,0.819,4.02,1.211c0.313,0.099,0.619,0.188,0.933,0.267c1.04,0.304,2.093,0.604,3.144,0.905
				c0.498,0.139,1.011,0.268,1.519,0.395c0.856,0.241,1.727,0.48,2.59,0.688c0.57,0.162,1.147,0.291,1.721,0.447
				c0.813,0.195,1.621,0.412,2.432,0.604c0.604,0.153,1.21,0.289,1.813,0.427c0.793,0.194,1.583,0.38,2.373,0.563
				c0.63,0.129,1.257,0.271,1.886,0.402c0.776,0.17,1.563,0.354,2.345,0.51c0.642,0.138,1.279,0.269,1.918,0.397
				c0.779,0.157,1.561,0.31,2.341,0.474c0.646,0.123,1.298,0.239,1.949,0.365c0.778,0.146,1.558,0.294,2.335,0.429
				c0.566,0.102,1.132,0.199,1.699,0.299c1.326,0.231,2.651,0.446,3.981,0.668c0.417,0.057,0.821,0.135,1.239,0.189
				c1.706,0.27,3.418,0.526,5.134,0.762c0.364,0.052,0.73,0.1,1.096,0.154c1.389,0.176,2.779,0.358,4.161,0.535
				c0.528,0.056,1.044,0.116,1.568,0.176c1.431,0.172,2.858,0.324,4.302,0.478c0.335,0.032,0.665,0.069,0.994,0.104
				c1.56,0.161,3.118,0.306,4.68,0.434c0.257,0.021,0.521,0.038,0.775,0.063c1.307,0.103,2.609,0.209,3.918,0.298
				c0.541,0.039,1.094,0.07,1.64,0.1c1.021,0.084,2.056,0.146,3.088,0.203c0.607,0.039,1.22,0.063,1.825,0.094
				c0.982,0.048,1.954,0.102,2.938,0.133c0.651,0.03,1.298,0.059,1.94,0.081c0.824,0.022,1.648,0.059,2.478,0.076
				c0.673,0.021,1.35,0.046,2.026,0.06c0.824,0.018,1.66,0.028,2.49,0.035c0.667,0.019,1.337,0.023,2.012,0.031
				c0.837,0.01,1.686,0.012,2.523,0.012c0.659,0.007,1.313,0,1.974,0c0.867-0.005,1.729-0.012,2.598-0.027
				c0.638-0.013,1.279-0.01,1.908-0.021c0.801-0.02,1.594-0.041,2.395-0.063c0.668-0.021,1.343-0.029,2.016-0.052
				c0.811-0.033,1.609-0.063,2.42-0.091c0.664-0.021,1.322-0.054,1.982-0.079c0.825-0.039,1.644-0.077,2.471-0.12
				c0.636-0.032,1.277-0.069,1.924-0.103c0.844-0.055,1.688-0.104,2.533-0.164c0.62-0.036,1.229-0.077,1.854-0.118
				c0.882-0.066,1.758-0.139,2.63-0.205c0.582-0.054,1.156-0.086,1.734-0.148c0.991-0.063,1.988-0.166,2.979-0.267
				c0.461-0.039,0.921-0.077,1.372-0.119c1.451-0.153,2.895-0.293,4.34-0.46c0.168-0.026,0.345-0.053,0.514-0.068
				c1.271-0.143,2.539-0.282,3.806-0.448c0.359-0.04,0.718-0.101,1.067-0.146c1.104-0.139,2.228-0.289,3.324-0.438
				c0.544-0.076,1.085-0.168,1.613-0.239c0.925-0.142,1.847-0.265,2.76-0.415c0.597-0.1,1.189-0.19,1.789-0.287
				c0.848-0.143,1.696-0.273,2.559-0.427c0.62-0.104,1.238-0.222,1.854-0.321c0.819-0.146,1.643-0.291,2.457-0.45
				c0.58-0.104,1.16-0.22,1.742-0.323c0.944-0.188,1.884-0.371,2.822-0.56c0.588-0.127,1.181-0.247,1.769-0.373
				c0.923-0.187,1.85-0.392,2.769-0.582c0.575-0.136,1.149-0.257,1.729-0.382c0.96-0.229,1.914-0.45,2.869-0.678
				c0.518-0.123,1.036-0.248,1.554-0.362c1.178-0.287,2.354-0.586,3.519-0.89c0.283-0.072,0.563-0.141,0.846-0.217
				c1.673-0.438,3.339-0.896,4.996-1.367c0.446-0.125,0.895-0.258,1.338-0.377c1.34-0.392,2.672-0.789,3.987-1.195
				c0.366-0.116,0.73-0.229,1.104-0.334c1.615-0.512,3.226-1.03,4.819-1.566c0.355-0.113,0.705-0.231,1.068-0.356
				c1.291-0.447,2.577-0.899,3.856-1.357c0.502-0.182,0.998-0.354,1.498-0.54c0.529-0.193,1.054-0.396,1.578-0.585
				c0.674-0.266,1.348-0.516,2.014-0.778c0.523-0.193,1.043-0.408,1.564-0.603c0.652-0.271,1.321-0.545,1.979-0.81
				c0.517-0.217,1.03-0.424,1.544-0.635c0.658-0.272,1.313-0.552,1.967-0.842c0.5-0.209,1.004-0.421,1.498-0.646
				c0.664-0.291,1.324-0.587,1.979-0.88c0.479-0.223,0.962-0.437,1.434-0.646c0.687-0.325,1.357-0.646,2.03-0.964
				c0.441-0.21,0.888-0.425,1.323-0.628c0.74-0.363,1.476-0.733,2.199-1.104c0.369-0.17,0.734-0.354,1.098-0.553
				c1.094-0.543,2.172-1.105,3.246-1.685c35.803-19.177,52.876-43.662,52.935-69.104L597.484,370.342z" /> </g>
			<g>
				<g>
					<g>
						<g>
							<g>
								<g>
									<defs>
										<path id="SVGID_11_" d="M597.484,370.342c-0.06,25.446-18.026,50.825-53.831,69.997c-1.063,0.578-2.146,1.136-3.243,1.692
										c-0.355,0.186-0.729,0.372-1.094,0.554c-0.729,0.36-1.46,0.729-2.2,1.091c-0.438,0.22-0.888,0.424-1.322,0.636
										c-0.675,0.314-1.354,0.64-2.034,0.95c-0.477,0.218-0.954,0.439-1.436,0.649c-0.659,0.297-1.313,0.599-1.975,0.886
										c-0.501,0.22-0.996,0.438-1.508,0.648c-0.65,0.279-1.304,0.564-1.961,0.839c-0.512,0.217-1.022,0.422-1.544,0.634
										c-0.651,0.27-1.317,0.538-1.979,0.795c-0.521,0.21-1.04,0.427-1.564,0.617c-0.67,0.257-1.336,0.521-2.018,0.764
										c-0.521,0.209-1.052,0.402-1.571,0.604c-0.239,0.082-0.487,0.18-0.734,0.275c-0.25,0.088-0.51,0.166-0.761,0.269
										c-1.279,0.458-2.572,0.908-3.86,1.354c-0.36,0.122-0.717,0.242-1.069,0.363c-1.6,0.532-3.206,1.054-4.832,1.56
										c-0.356,0.117-0.725,0.229-1.09,0.337c-1.326,0.409-2.65,0.806-3.988,1.193c-0.444,0.126-0.895,0.25-1.34,0.386
										c-1.654,0.473-3.319,0.926-5,1.362c-0.025,0.007-0.059,0.021-0.084,0.025c-0.247,0.058-0.498,0.115-0.75,0.188
										c-1.173,0.298-2.346,0.595-3.521,0.889c-0.52,0.129-1.035,0.248-1.545,0.365c-0.966,0.224-1.92,0.451-2.882,0.673
										c-0.574,0.128-1.153,0.261-1.73,0.391c-0.918,0.198-1.84,0.388-2.761,0.583c-0.583,0.134-1.179,0.251-1.769,0.369
										c-0.943,0.185-1.886,0.381-2.818,0.558c-0.385,0.076-0.756,0.152-1.137,0.221c-0.198,0.039-0.406,0.068-0.604,0.123
										c-0.822,0.139-1.646,0.289-2.467,0.437c-0.619,0.104-1.242,0.228-1.859,0.331c-0.847,0.139-1.7,0.282-2.552,0.42
										c-0.601,0.096-1.19,0.191-1.792,0.286c-0.917,0.146-1.832,0.272-2.75,0.41c-0.54,0.08-1.074,0.159-1.619,0.233
										c-1.104,0.169-2.221,0.313-3.331,0.455c-0.335,0.039-0.658,0.089-0.99,0.13c-0.021,0.002-0.046,0.002-0.068,0.011
										c-1.268,0.158-2.554,0.317-3.821,0.457c-0.169,0.021-0.333,0.037-0.495,0.063c-1.448,0.163-2.891,0.311-4.339,0.455
										c-0.456,0.035-0.915,0.089-1.371,0.127c-0.993,0.101-1.983,0.188-2.981,0.271c-0.575,0.06-1.151,0.094-1.73,0.146
										c-0.875,0.064-1.756,0.142-2.631,0.191l-0.179,0.021c-0.554,0.043-1.118,0.07-1.673,0.104
										c-0.846,0.063-1.692,0.125-2.54,0.16c-0.643,0.047-1.277,0.068-1.918,0.111c-0.818,0.048-1.646,0.079-2.473,0.125
										c-0.661,0.021-1.321,0.048-1.979,0.069c-0.804,0.046-1.612,0.072-2.426,0.098c-0.669,0.021-1.341,0.027-2.018,0.049
										c-0.803,0.025-1.591,0.043-2.392,0.059c-0.141-0.007-0.28,0.003-0.426,0.009c-0.494,0.016-0.988,0.018-1.483,0.021
										c-0.866,0.006-1.731,0.018-2.601,0.021c-0.651,0.011-1.311,0.006-1.971,0c-0.841,0-1.689,0-2.525-0.007
										c-0.674-0.009-1.338-0.02-2.011-0.023c-0.828-0.017-1.663-0.032-2.495-0.049c-0.675-0.014-1.354-0.026-2.022-0.051
										c-0.827-0.022-1.646-0.05-2.473-0.07c-0.32-0.014-0.643-0.021-0.969-0.039c-0.323-0.015-0.651-0.034-0.979-0.053
										c-0.979-0.029-1.952-0.079-2.934-0.131c-0.604-0.031-1.217-0.058-1.827-0.103c-1.033-0.041-2.06-0.112-3.091-0.18
										c-0.541-0.049-1.09-0.073-1.633-0.109c-1.308-0.091-2.609-0.204-3.915-0.293c-0.262-0.033-0.521-0.059-0.781-0.073
										c-1.56-0.136-3.119-0.278-4.681-0.427c-0.072-0.021-0.155-0.021-0.23-0.021c-0.258-0.021-0.507-0.061-0.766-0.092
										c-1.435-0.146-2.865-0.291-4.297-0.47c-0.521-0.06-1.042-0.122-1.564-0.183c-1.394-0.178-2.776-0.355-4.165-0.538
										c-0.363-0.051-0.733-0.094-1.103-0.153c-1.714-0.229-3.418-0.489-5.126-0.738c-0.419-0.07-0.828-0.14-1.245-0.203
										c-1.334-0.224-2.657-0.443-3.979-0.67c-0.284-0.046-0.565-0.088-0.847-0.144c-0.29-0.041-0.567-0.104-0.854-0.157
										c-0.785-0.146-1.562-0.271-2.338-0.429c-0.646-0.119-1.299-0.24-1.947-0.373c-0.779-0.146-1.563-0.304-2.336-0.469
										c-0.646-0.132-1.286-0.257-1.925-0.396c-0.786-0.164-1.564-0.328-2.344-0.495c-0.628-0.138-1.262-0.283-1.878-0.418
										c-0.794-0.187-1.587-0.38-2.382-0.554c-0.602-0.142-1.207-0.279-1.806-0.435c-0.817-0.197-1.627-0.403-2.438-0.604
										c-0.577-0.146-1.146-0.285-1.718-0.438c-0.874-0.221-1.738-0.464-2.593-0.689c-0.513-0.142-1.019-0.271-1.521-0.407
										c-1.059-0.293-2.104-0.598-3.146-0.896c-0.313-0.089-0.623-0.173-0.932-0.262c-1.343-0.394-2.688-0.813-4.021-1.229
										c-0.02-0.003-0.041,0-0.063-0.014c-0.1-0.027-0.201-0.074-0.294-0.091c-1.475-0.475-2.939-0.942-4.396-1.436
										c-0.453-0.158-0.911-0.309-1.368-0.462c-1.217-0.42-2.422-0.842-3.623-1.274c-0.379-0.132-0.765-0.271-1.146-0.396
										c-1.523-0.569-3.044-1.146-4.546-1.729c-0.308-0.112-0.604-0.245-0.907-0.361c-1.222-0.479-2.439-0.979-3.646-1.479
										c-0.438-0.175-0.874-0.361-1.312-0.553c-1.239-0.526-2.464-1.063-3.681-1.604c-0.254-0.11-0.517-0.221-0.769-0.335
										c-1.434-0.648-2.861-1.32-4.268-2.003c-0.376-0.18-0.737-0.354-1.109-0.542c-1.086-0.521-2.16-1.067-3.231-1.621
										c-0.397-0.195-0.802-0.403-1.199-0.605c-1.383-0.72-2.749-1.453-4.101-2.207c-0.74-0.406-1.478-0.825-2.202-1.242
										c-0.17-0.099-0.333-0.19-0.494-0.283c-0.567-0.335-1.118-0.663-1.676-0.997c-0.503-0.3-1.009-0.59-1.501-0.896
										c-0.548-0.339-1.087-0.679-1.628-1.016c-0.482-0.304-0.969-0.605-1.444-0.913c-0.535-0.339-1.055-0.685-1.57-1.021
										c-0.473-0.315-0.941-0.626-1.399-0.938c-0.517-0.347-1.02-0.688-1.525-1.051c-0.443-0.305-0.896-0.623-1.333-0.923
										c-0.5-0.362-0.985-0.719-1.484-1.081c-0.423-0.313-0.857-0.625-1.276-0.933c-0.481-0.37-0.954-0.733-1.429-1.102
										c-0.408-0.314-0.822-0.636-1.22-0.948c-0.471-0.373-0.927-0.748-1.392-1.123c-0.383-0.313-0.776-0.633-1.153-0.935
										c-0.461-0.396-0.906-0.783-1.357-1.178c-0.315-0.27-0.643-0.537-0.957-0.816c-0.056-0.03-0.105-0.096-0.159-0.137
										c-0.116-0.103-0.232-0.216-0.354-0.316c-0.594-0.521-1.176-1.061-1.75-1.59c-0.158-0.146-0.318-0.303-0.476-0.455
										c-0.655-0.608-1.299-1.228-1.93-1.846c-0.102-0.106-0.204-0.205-0.304-0.309c-0.549-0.546-1.088-1.107-1.607-1.648
										c-0.146-0.149-0.296-0.3-0.435-0.453c-0.599-0.625-1.18-1.252-1.748-1.894c-0.096-0.101-0.186-0.199-0.27-0.302
										c-0.497-0.563-0.979-1.117-1.452-1.674c-0.134-0.162-0.269-0.317-0.398-0.471c-0.099-0.131-0.194-0.234-0.29-0.354
										c-0.42-0.507-0.832-1.019-1.235-1.53c-0.084-0.097-0.168-0.214-0.255-0.334c-0.516-0.661-1.02-1.32-1.512-1.984
										c-0.027-0.033-0.054-0.067-0.071-0.105c-0.485-0.646-0.95-1.307-1.401-1.979c-0.062-0.082-0.123-0.168-0.181-0.261
										c-0.449-0.646-0.876-1.313-1.301-1.976c-0.076-0.115-0.153-0.229-0.231-0.36c-0.355-0.567-0.708-1.134-1.042-1.702
										c-0.039-0.064-0.075-0.127-0.104-0.188c-0.288-0.479-0.55-0.949-0.814-1.443c-0.172-0.295-0.349-0.592-0.512-0.902
										c-0.294-0.547-0.572-1.102-0.844-1.646c-0.123-0.237-0.252-0.475-0.369-0.706c-0.389-0.792-0.755-1.578-1.104-2.374
										c-0.053-0.125-0.099-0.239-0.148-0.359c-0.293-0.676-0.574-1.345-0.842-2.021c-0.013-0.025-0.024-0.051-0.034-0.077
										c-0.114-0.308-0.215-0.599-0.326-0.896c-0.172-0.465-0.354-0.926-0.512-1.385c-0.12-0.343-0.223-0.688-0.338-1.029
										c-0.143-0.443-0.292-0.893-0.427-1.338c-0.11-0.354-0.204-0.703-0.304-1.063c-0.122-0.43-0.251-0.868-0.361-1.305
										c-0.09-0.359-0.172-0.73-0.258-1.09c-0.104-0.441-0.208-0.857-0.295-1.295c-0.016-0.08-0.037-0.158-0.052-0.23
										c-0.063-0.287-0.103-0.564-0.161-0.848c-0.079-0.444-0.167-0.881-0.239-1.32c-0.063-0.359-0.113-0.73-0.165-1.109
										c-0.062-0.422-0.131-0.855-0.185-1.285c-0.041-0.371-0.079-0.742-0.114-1.119c-0.044-0.43-0.088-0.854-0.122-1.293
										c-0.028-0.367-0.052-0.74-0.072-1.112c-0.026-0.433-0.046-0.855-0.061-1.284c-0.002-0.141-0.016-0.273-0.018-0.413
										c-0.018-0.503-0.018-1.005-0.018-1.502l0.095-33.322c-0.002,0.636,0.018,0.384,0.035,1.021
										c0.012,0.43,0.041-0.031,0.061,0.395c0.027,0.378,0.049-1.03,0.074-0.655c0.034,0.438,0.077-4.473,0.119-4.043
										c0.04,0.379,0.078,0.738,0.121,1.104c0.052,0.438,0.115,0.877,0.179,1.311c0.051,0.358,0.099,0.729,0.166,1.1
										c0.072,0.438,0.158,0.875,0.244,1.313c0.065,0.372,0.13,0.732,0.208,1.088c0.089,0.433,0.196,0.859,0.296,1.297
										c0.084,0.354,0.162,0.715,0.261,1.084c0.113,0.437,0.234,0.863,0.363,1.309c0.093,0.354,0.19,0.712,0.295,1.063
										c0.141,0.448,0.286,0.894,0.435,1.338c0.107,0.346,0.22,0.684,0.335,1.033c0.165,0.465,0.339,0.918,0.513,1.387
										c0.123,0.322,0.235,0.646,0.362,0.97c0.265,0.664,0.549,1.351,0.832,2.021c0.059,0.117,0.101,0.239,0.161,0.357
										c0.346,0.797,0.72,1.579,1.104,2.374c0.125,0.243,0.247,0.476,0.372,0.728c0.276,0.539,0.548,1.09,0.842,1.625
										c0.167,0.306,0.339,0.619,0.51,0.916c0.271,0.484,0.532,0.963,0.812,1.438c0.376,0.635,0.754,1.266,1.15,1.895
										c0.077,0.123,0.153,0.234,0.233,0.364c0.415,0.653,0.854,1.317,1.294,1.968c0.061,0.094,0.124,0.182,0.183,0.271
										c0.456,0.653,0.917,1.313,1.4,1.969c0.018,0.05,0.047,0.08,0.073,0.11c0.489,0.673,0.993,1.337,1.518,1.984
										c0.081,0.107,0.166,0.228,0.25,0.336c0.495,0.625,1.005,1.256,1.523,1.868c0.137,0.162,0.267,0.317,0.393,0.474
										c0.483,0.564,0.964,1.129,1.457,1.688c0.092,0.093,0.177,0.195,0.264,0.302c0.583,0.629,1.162,1.268,1.757,1.893
										c0.139,0.162,0.285,0.313,0.435,0.459c0.525,0.547,1.06,1.095,1.605,1.633c0.1,0.107,0.204,0.214,0.304,0.313
										c0.635,0.627,1.277,1.244,1.936,1.857c0.154,0.152,0.311,0.305,0.467,0.449c0.576,0.527,1.163,1.061,1.758,1.599
										c0.115,0.103,0.235,0.203,0.357,0.312c0.358,0.32,0.74,0.646,1.11,0.968c0.448,0.377,0.894,0.776,1.349,1.157
										c0.387,0.313,0.776,0.621,1.163,0.938c0.459,0.382,0.917,0.765,1.393,1.128c0.4,0.313,0.811,0.627,1.226,0.94
										c0.465,0.371,0.94,0.733,1.413,1.104c0.428,0.314,0.862,0.614,1.292,0.938c0.487,0.354,0.977,0.718,1.471,1.064
										c0.445,0.318,0.895,0.623,1.343,0.939c0.508,0.352,1.009,0.7,1.522,1.05c0.456,0.31,0.928,0.617,1.395,0.923
										c0.519,0.346,1.04,0.688,1.568,1.026c0.479,0.305,0.972,0.604,1.457,0.912c0.536,0.338,1.074,0.672,1.618,1.009
										c0.498,0.307,1,0.6,1.504,0.896c0.556,0.336,1.108,0.67,1.676,0.983c0.893,0.521,1.783,1.037,2.701,1.544
										c1.349,0.743,2.717,1.471,4.102,2.195c0.391,0.207,0.79,0.414,1.193,0.626c1.071,0.538,2.146,1.085,3.239,1.61
										c0.364,0.184,0.726,0.363,1.099,0.541c1.411,0.688,2.833,1.354,4.281,2c0.248,0.115,0.504,0.229,0.762,0.34
										c1.211,0.549,2.438,1.074,3.679,1.602c0.438,0.188,0.876,0.371,1.313,0.561c1.207,0.492,2.426,0.99,3.642,1.474
										c0.307,0.121,0.604,0.251,0.917,0.356c1.498,0.599,3.019,1.168,4.544,1.722c0.381,0.139,0.769,0.271,1.146,0.414
										c1.202,0.43,2.403,0.85,3.622,1.271c0.456,0.146,0.906,0.313,1.361,0.463c1.459,0.483,2.926,0.959,4.396,1.428
										c0.12,0.046,0.241,0.074,0.364,0.117c1.327,0.41,2.668,0.819,4.02,1.211c0.313,0.099,0.619,0.188,0.933,0.267
										c1.04,0.304,2.093,0.604,3.144,0.905c0.498,0.139,1.011,0.268,1.519,0.395c0.856,0.241,1.727,0.48,2.59,0.688
										c0.57,0.162,1.147,0.291,1.721,0.447c0.813,0.195,1.621,0.412,2.432,0.604c0.604,0.153,1.21,0.289,1.813,0.427
										c0.793,0.194,1.583,0.38,2.373,0.563c0.63,0.129,1.257,0.271,1.886,0.402c0.776,0.17,1.563,0.354,2.345,0.51
										c0.642,0.138,1.279,0.269,1.918,0.397c0.779,0.157,1.561,0.31,2.341,0.474c0.646,0.123,1.298,0.239,1.949,0.365
										c0.778,0.146,1.558,0.294,2.335,0.429c0.566,0.102,1.132,0.199,1.699,0.299c1.326,0.231,2.651,0.446,3.981,0.668
										c0.417,0.057,0.821,0.135,1.239,0.189c1.706,0.27,3.418,0.526,5.134,0.762c0.364,0.052,0.73,0.1,1.096,0.154
										c1.389,0.176,2.779,0.358,4.161,0.535c0.528,0.056,1.044,0.116,1.568,0.176c1.431,0.172,2.858,0.324,4.302,0.478
										c0.335,0.032,0.665,0.069,0.994,0.104c1.56,0.161,3.118,0.306,4.68,0.434c0.257,0.021,0.521,0.038,0.775,0.063
										c1.307,0.103,2.609,0.209,3.918,0.298c0.541,0.039,1.094,0.07,1.64,0.1c1.021,0.084,2.056,0.146,3.088,0.203
										c0.607,0.039,1.22,0.063,1.825,0.094c0.982,0.048,1.954,0.102,2.938,0.133c0.651,0.03,1.298,0.059,1.94,0.081
										c0.824,0.022,1.648,0.059,2.478,0.076c0.673,0.021,1.35,0.046,2.026,0.06c0.824,0.018,1.66,0.028,2.49,0.035
										c0.667,0.019,1.337,0.023,2.012,0.031c0.837,0.01,1.686,0.012,2.523,0.012c0.659,0.007,1.313,0,1.974,0
										c0.867-0.005,1.729-0.012,2.598-0.027c0.638-0.013,1.279-0.01,1.908-0.021c0.801-0.02,1.594-0.041,2.395-0.063
										c0.668-0.021,1.343-0.029,2.016-0.052c0.811-0.033,1.609-0.063,2.42-0.091c0.664-0.021,1.322-0.054,1.982-0.079
										c0.825-0.039,1.644-0.077,2.471-0.12c0.636-0.032,1.277-0.069,1.924-0.103c0.844-0.055,1.688-0.104,2.533-0.164
										c0.62-0.036,1.229-0.077,1.854-0.118c0.882-0.066,1.758-0.139,2.63-0.205c0.582-0.054,1.156-0.086,1.734-0.148
										c0.991-0.063,1.988-0.166,2.979-0.267c0.461-0.039,0.921-0.077,1.372-0.119c1.451-0.153,2.895-0.293,4.34-0.46
										c0.168-0.026,0.345-0.053,0.514-0.068c1.271-0.143,2.539-0.282,3.806-0.448c0.359-0.04,0.718-0.101,1.067-0.146
										c1.104-0.139,2.228-0.289,3.324-0.438c0.544-0.076,1.085-0.168,1.613-0.239c0.925-0.142,1.847-0.265,2.76-0.415
										c0.597-0.1,1.189-0.19,1.789-0.287c0.848-0.143,1.696-0.273,2.559-0.427c0.62-0.104,1.238-0.222,1.854-0.321
										c0.819-0.146,1.643-0.291,2.457-0.45c0.58-0.104,1.16-0.22,1.742-0.323c0.944-0.188,1.884-0.371,2.822-0.56
										c0.588-0.127,1.181-0.247,1.769-0.373c0.923-0.187,1.85-0.392,2.769-0.582c0.575-0.136,1.149-0.257,1.729-0.382
										c0.96-0.229,1.914-0.45,2.869-0.678c0.518-0.123,1.036-0.248,1.554-0.362c1.178-0.287,2.354-0.586,3.519-0.89
										c0.283-0.072,0.563-0.141,0.846-0.217c1.673-0.438,3.339-0.896,4.996-1.367c0.446-0.125,0.895-0.258,1.338-0.377
										c1.34-0.392,2.672-0.789,3.987-1.195c0.366-0.116,0.73-0.229,1.104-0.334c1.615-0.512,3.226-1.03,4.819-1.566
										c0.355-0.113,0.705-0.231,1.068-0.356c1.291-0.447,2.577-0.899,3.856-1.357c0.502-0.182,0.998-0.354,1.498-0.54
										c0.529-0.193,1.054-0.396,1.578-0.585c0.674-0.266,1.348-0.516,2.014-0.778c0.523-0.193,1.043-0.408,1.564-0.603
										c0.652-0.271,1.321-0.545,1.979-0.81c0.517-0.217,1.03-0.424,1.544-0.635c0.658-0.272,1.313-0.552,1.967-0.842
										c0.5-0.209,1.004-0.421,1.498-0.646c0.664-0.291,1.324-0.587,1.979-0.88c0.479-0.223,0.962-0.437,1.434-0.646
										c0.687-0.325,1.357-0.646,2.03-0.964c0.441-0.21,0.888-0.425,1.323-0.628c0.74-0.363,1.476-0.733,2.199-1.104
										c0.369-0.17,0.734-0.354,1.098-0.553c1.094-0.543,2.172-1.105,3.246-1.685c35.803-19.177,52.876-43.662,52.935-69.104
										L597.484,370.342z" /> </defs>
									<clipPath id="SVGID_12_">
										<use xlink:href="#SVGID_11_" overflow="visible" /> </clipPath>
									<linearGradient id="SVGID_13_" gradientUnits="userSpaceOnUse" x1="1138.5293" y1="2134.9121" x2="1987.1846" y2="2134.9121" gradientTransform="matrix(-0.4271 -0.0026 -0.0026 0.4271 1089.2773 -508.2937)">
										<stop offset="0" style="stop-color:#128BEB" />
										<stop offset="1" style="stop-color:#126BEB" /> </linearGradient>
									<polygon clip-path="url(#SVGID_12_)" fill="url(#SVGID_13_)" points="597.783,329.908 235.431,327.529 234.678,469.021 
									597.029,471.398 								" /> </g>
							</g>
						</g>
					</g>
				</g>
			</g>
		</g>
		<g>
			<g>
				<path id="SVGID_10_" fill="#FFB000" d="M269.168,405.947c1.956,1.104,3.519,3.732,3.493,5.867
				c-0.027,2.123-1.635,2.949-3.587,1.838c-1.957-1.104-3.52-3.729-3.493-5.862c0.017-1.498,0.822-2.351,1.978-2.335
				C268.044,405.46,268.591,405.613,269.168,405.947" /> </g>
			<g>
				<g>
					<g>
						<g>
							<g>
								<g>
									<defs>
										<path id="SVGID_15_" d="M269.168,405.947c1.956,1.104,3.519,3.732,3.493,5.867c-0.027,2.123-1.635,2.949-3.587,1.838
										c-1.957-1.104-3.52-3.729-3.493-5.862c0.017-1.498,0.822-2.351,1.978-2.335
										C268.044,405.46,268.591,405.613,269.168,405.947" /> </defs>
									<clipPath id="SVGID_17_">
										<use xlink:href="#SVGID_15_" overflow="visible" /> </clipPath>
									<polygon clip-path="url(#SVGID_17_)" fill="#FFB000" points="262.381,413.555 271.837,416.941 275.859,406.652 
									266.407,403.266 								" /> </g>
							</g>
						</g>
					</g>
				</g>
			</g>
		</g>
		<g>
			<g>
				<path id="SVGID_3_" fill="#FFFFFF" d="M281.028,414.32c1.956,1.115,3.517,3.746,3.497,5.869c-0.029,2.13-1.63,2.959-3.587,1.85
				c-1.956-1.111-3.519-3.734-3.493-5.87c0.019-1.498,0.826-2.347,1.98-2.337C279.907,413.842,280.454,413.997,281.028,414.32" /> </g>
			<g>
				<g>
					<g>
						<g>
							<g>
								<g>
									<defs>
										<path id="SVGID_18_" d="M281.028,414.32c1.956,1.115,3.517,3.746,3.497,5.869c-0.029,2.13-1.63,2.959-3.587,1.85
										c-1.956-1.111-3.519-3.734-3.493-5.87c0.019-1.498,0.826-2.347,1.98-2.337C279.907,413.842,280.454,413.997,281.028,414.32
										" /> </defs>
									<clipPath id="SVGID_19_">
										<use xlink:href="#SVGID_18_" overflow="visible" /> </clipPath>
									<polygon clip-path="url(#SVGID_19_)" fill="#FFFFFF" points="274.24,421.933 283.695,425.327 287.723,415.035 
									278.264,411.648 								" /> </g>
							</g>
						</g>
					</g>
				</g>
			</g>
		</g>
		<g>
			<g>
				<path id="SVGID_2_" fill="#FFB000" d="M295.069,422.79c1.957,1.108,3.52,3.739,3.492,5.861c-0.024,2.132-1.629,2.956-3.584,1.85
				c-1.953-1.108-3.52-3.73-3.49-5.862c0.016-1.503,0.821-2.357,1.975-2.338C293.946,422.303,294.496,422.465,295.069,422.79" /> </g>
			<g>
				<g>
					<g>
						<g>
							<g>
								<g>
									<defs>
										<path id="SVGID_20_" d="M295.069,422.79c1.957,1.108,3.52,3.739,3.492,5.861c-0.024,2.132-1.629,2.956-3.584,1.85
										c-1.953-1.108-3.52-3.73-3.49-5.862c0.016-1.503,0.821-2.357,1.975-2.338C293.946,422.303,294.496,422.465,295.069,422.79" /> </defs>
									<clipPath id="SVGID_21_">
										<use xlink:href="#SVGID_20_" overflow="visible" /> </clipPath>
									<polygon clip-path="url(#SVGID_21_)" fill="#FFB000" points="288.281,430.405 297.737,433.789 301.764,423.5 
									292.306,420.114 								" /> </g>
							</g>
						</g>
					</g>
				</g>
			</g>
		</g>
		<g>
			<g>
				<radialGradient id="SVGID_22_" cx="1605.9297" cy="1917.3008" r="688.4692" gradientTransform="matrix(-0.427 -0.0028 -0.0021 0.4023 1088.2412 -436.308)" gradientUnits="userSpaceOnUse">
					<stop offset="0.2461" style="stop-color:#FFFFFF" />
					<stop offset="0.638" style="stop-color:#DEF0FF" />
					<stop offset="0.6457" style="stop-color:#D7ECFF" />
					<stop offset="0.6708" style="stop-color:#C6E2FF" />
					<stop offset="0.7021" style="stop-color:#BBDBFF" />
					<stop offset="0.746" style="stop-color:#B4D7FF" />
					<stop offset="0.8678" style="stop-color:#B2D6FF" /> </radialGradient>
				<path id="SVGID_1_" fill="url(#SVGID_22_)" d="M545.395,269.448c70.466,39.14,69.754,101.851-1.575,140.058
				c-71.338,38.218-186.278,37.465-256.735-1.682c-70.464-39.143-69.75-101.854,1.582-140.063
				c35.667-19.111,82.232-28.474,128.688-28.166C463.815,239.899,510.166,249.871,545.395,269.448" /> </g>
			<g>
				<g>
					<g>
						<g>
							<g>
								<g>
									<defs>
										<path id="SVGID_23_" d="M545.395,269.448c70.466,39.14,69.754,101.851-1.575,140.058
										c-71.338,38.218-186.278,37.465-256.735-1.682c-70.464-39.143-69.75-101.854,1.582-140.063
										c35.667-19.111,82.232-28.474,128.688-28.166C463.815,239.899,510.166,249.871,545.395,269.448" /> </defs>
									<clipPath id="SVGID_24_">
										<use xlink:href="#SVGID_23_" overflow="visible" /> </clipPath>
									<radialGradient id="SVGID_25_" cx="1443.9873" cy="835.0586" r="2.736" fx="1442.1023" fy="836.0327" gradientTransform="matrix(-132.6647 10.0294 -10.9105 -124.9762 201058.9688 90202.9453)" gradientUnits="userSpaceOnUse">
										<stop offset="0.3108" style="stop-color:#FFFFFF" />
										<stop offset="0.5862" style="stop-color:#DEF0FF" />
										<stop offset="0.9261" style="stop-color:#B2D6FF" /> </radialGradient>
									<polygon clip-path="url(#SVGID_24_)" fill="url(#SVGID_25_)" points="613.377,208.339 198.2,239.728 219.053,478.596 
									634.229,447.214 								" /> </g>
							</g>
						</g>
					</g>
				</g>
			</g>
		</g>
	</g>
	<g>
		<linearGradient id="XMLID_2_" gradientUnits="userSpaceOnUse" x1="1208.6016" y1="2016.3896" x2="1627" y2="2016.3896" gradientTransform="matrix(0.4271 0 0 0.4271 -185.5804 -512.9031)">
			<stop offset="0" style="stop-color:#128BEB" />
			<stop offset="1" style="stop-color:#126BEB" /> </linearGradient>
		<path id="XMLID_10757_" opacity="0.6" fill="url(#XMLID_2_)" enable-background="new    " d="M483.145,384.712
		c34.89-20.024,34.89-52.803,0-72.831c-34.888-20.031-91.819-20.031-126.513,0c-34.691,20.028-34.691,52.805,0,72.831
		C391.324,404.744,448.257,404.744,483.145,384.712z" />
		<linearGradient id="XMLID_3_" gradientUnits="userSpaceOnUse" x1="1239.8262" y1="2012.2285" x2="1595.7705" y2="2012.2285" gradientTransform="matrix(0.4271 0 0 0.4271 -185.5804 -512.9031)">
			<stop offset="0" style="stop-color:#128BEB" />
			<stop offset="1" style="stop-color:#126BEB" /> </linearGradient>
		<path id="XMLID_10754_" opacity="0.6" fill="url(#XMLID_3_)" enable-background="new    " d="M473.714,377.499
		c29.68-17.04,29.68-44.919,0-61.959c-29.686-17.04-78.114-17.04-107.627,0c-29.517,17.04-29.517,44.919,0,61.959
		C395.599,394.539,444.03,394.539,473.714,377.499z" />
		<linearGradient id="XMLID_4_" gradientUnits="userSpaceOnUse" x1="1282.5869" y1="2012.2295" x2="1553.0098" y2="2012.2295" gradientTransform="matrix(0.4271 0 0 0.4271 -185.5804 -512.9031)">
			<stop offset="0" style="stop-color:#128BEB" />
			<stop offset="1" style="stop-color:#126BEB" /> </linearGradient>
		<path id="XMLID_10764_" opacity="0.7" fill="url(#XMLID_4_)" enable-background="new    " d="M460.796,370.057
		c22.553-12.947,22.553-34.125,0-47.074c-22.549-12.943-59.343-12.943-81.768,0c-22.421,12.945-22.421,34.127,0,47.074
		C401.451,383.002,438.247,383.002,460.796,370.057z" /> </g>
	<g>
		<g>
			<path fill="#1D1D1B" d="M437.674,339.469c0.238,0.857,0.105,1.576,0.525,2.703c0.428,1.125,0.932,2.381,1.394,4.337
			c0.71,3.024-0.27,7.073,0.688,11.351c0.495,1.711,0.457,3.082-0.681,4.593c-1.112,1.479-3.21,3.854-5.938,3.764
			c-0.623-0.021-1.897-0.27-2.883-1.396c-1.032-1.188-1.878-2.92-1.724-5.068c0.058-0.814,0.534-3.439,0.451-5.835
			c-0.069-2.093-0.456-3.247-0.404-5.543c0.052-2.425,0.238-5.769,0.274-7.336L437.674,339.469z" />
			<path fill="#1D1D1B" d="M413.54,327.032c0.79,2.149,1.313,3.067,1.349,6.073c-0.482,1.582-1.602,2.225-2.846,3.317l-0.876,0.193
			c-2.176,1.177-2.97,5.303-4.988,7.181c-1.423,1.326-4.255,2.049-7.066,2.596c-3.006,0.58-5.86-0.279-5.077-2.646
			c1.94-5.873,10.345-12.503,10.537-19.064L413.54,327.032z" />
			<path fill="#1D1D1B" d="M400.932,285.178c0.213,11.248,2.667,32.305,2.291,43.389c2.873,2.885,8.629,1.992,10.499-0.955
			c1.167-10.201,2.528-24.693,2.663-30.289c0.11-4.66-0.309-8.943-1.497-13.129c1.67-12.311,8.778-29.105,7.087-40.688
			c-0.743-5.087-4.078-10.562-5.048-14.758c-8.384,10.328-14.772,5.381-18.243,4.48c0.02,3.566-0.251,3.093-0.135,6.846
			c0.394,12.684,0.979,26.229,1.678,39.391C400.203,281.432,400.379,283.59,400.932,285.178z" />
			<path opacity="0.3" fill="#1D1D1B" enable-background="new    " d="M415.655,307.988c0.393-4.428,0.671-8.288,0.729-10.672
			c0.111-4.659-0.307-8.942-1.498-13.125c1.67-12.313,8.779-29.108,7.087-40.688c-0.741-5.089-4.076-10.562-5.048-14.758
			c-8.385,10.328-14.772,5.379-18.243,4.481c0.001,0.398,0,0.744-0.004,1.053l10.989,8.122l-2.707-0.613
			c0.104,14.619,1.91,27.944,2.184,42.358c2.837,8.174,4.504,15.16,6.464,23.584L415.655,307.988z" />
			<path fill="#1D1D1B" d="M419.605,293.359c2.02,11.252,7.911,38.548,9.314,49.634c3.633,2.017,8.969,1.313,10.252-1.636
			c0.039-10.201,0-28.549-0.766-34.146c-0.642-4.658-2.282-11.85-4.146-16.029c0.745-26.283,2.979-33.643-0.568-45.221
			c-1.563-5.088-5.642-9.996-7.283-14.188c-2.251,3.456-5.723,8.357-13.158,7.756c-0.729-0.063-6.933-4.493-8.979-5.001
			c2.597,15.638,10.073,36.061,13.713,53.115C418.277,289.611,418.799,291.775,419.605,293.359z" /> </g>
		<g>
			<linearGradient id="SVGID_26_" gradientUnits="userSpaceOnUse" x1="1613.6611" y1="1665.8672" x2="1663.0713" y2="1665.8672" gradientTransform="matrix(-0.4271 0 0 0.4271 1055.2996 -512.9031)">
				<stop offset="0" style="stop-color:#FAD6C7" />
				<stop offset="1" style="stop-color:#E4857F" /> </linearGradient>
			<path fill="url(#SVGID_26_)" d="M362.328,197.508c-0.423-1.321-2.504-3.804-3.271-4.191c-2.54-1.302-3.643-4.489-4.617-2.985
			c-0.771,1.188,0.688,2.688,1.344,3.494c0.258,0.314,1.039,0.979,0.304,1.114c-2.026,0.376-9.811-4.589-10.688-4.088
			c-0.883,0.505-0.059,1.298,0.195,1.611c1.813,2.287-0.171,4.72,2.381,6.779c2.236,1.807,7.116,3.5,8.43,3.977
			c1.313,0.477,5.848,4.021,5.848,4.021s4.243-5.306,3.822-5.683C365.649,201.178,362.755,198.83,362.328,197.508z" />
			<linearGradient id="SVGID_27_" gradientUnits="userSpaceOnUse" x1="1496.4414" y1="1656.2754" x2="1638.0078" y2="1656.2754" gradientTransform="matrix(-0.4271 0 0 0.4271 1055.2996 -512.9031)">
				<stop offset="0" style="stop-color:#F6F6F6" />
				<stop offset="1" style="stop-color:#DCCCCA" /> </linearGradient>
			<path fill="url(#SVGID_27_)" d="M360.267,195.768c0,0,11.305,3.634,25.46,4.677c0.264-0.361,0.53-0.729,0.824-1.099
			c7.771-9.971,13.39-19.49,14.741-20.938c6.449-6.896,13.158-4.313,14.315-0.193c1.786,6.372-0.354,13.693-11.269,24.364
			c-10.914,10.672-14.091,12.667-17.969,12.213c-0.617-0.071-1.231-0.263-1.796-0.567c-12.269-0.679-28.523-8.354-28.523-8.354
			C354.223,198.201,360.267,195.768,360.267,195.768z" /> </g>
		<linearGradient id="SVGID_28_" gradientUnits="userSpaceOnUse" x1="1433.9229" y1="1688.4961" x2="1541.4414" y2="1688.4961" gradientTransform="matrix(-0.4271 0 0 0.4271 1055.2996 -512.9031)">
			<stop offset="0" style="stop-color:#F6F6F6" />
			<stop offset="1" style="stop-color:#DCCCCA" /> </linearGradient>
		<path fill="url(#SVGID_28_)" d="M397.367,213.164c-0.219-6.284-0.803-11.988-0.03-18.863c0.89-7.923,2.818-16.963,8.354-20.033
		c0.761-0.426,1.497-0.685,2.317-0.783c4.028-1.176,12.818-1.84,20.337,2.662c7.816,4.678,15.162,13.575,14.481,18.213
		c-0.191,1.306-0.536,2.613-0.986,3.937v0.002c-0.121,0.357-0.253,0.721-0.393,1.08c-0.049,0.126-0.104,0.257-0.15,0.387
		c-0.104,0.267-0.215,0.533-0.328,0.804c-0.066,0.162-0.135,0.323-0.204,0.479c-0.104,0.246-0.218,0.493-0.328,0.742
		c-0.069,0.16-0.145,0.322-0.219,0.481c-0.125,0.268-0.252,0.536-0.379,0.807c-0.063,0.135-0.128,0.269-0.196,0.405
		c-0.188,0.396-0.387,0.796-0.588,1.199c-0.06,0.122-0.124,0.245-0.185,0.365c-0.152,0.31-0.313,0.616-0.468,0.927
		c-0.098,0.187-0.188,0.377-0.288,0.562c-0.174,0.344-0.353,0.688-0.525,1.033c-0.146,0.289-0.3,0.586-0.448,0.879
		c-0.098,0.19-0.193,0.382-0.293,0.572c-0.221,0.438-0.444,0.884-0.671,1.334c-0.036,0.074-0.07,0.148-0.107,0.22
		c-0.188,0.379-0.371,0.756-0.562,1.143c-0.077,0.158-0.15,0.319-0.229,0.479c-0.149,0.309-0.298,0.617-0.442,0.934
		c-0.082,0.179-0.164,0.356-0.246,0.535c-0.146,0.324-0.293,0.647-0.438,0.979c-0.07,0.163-0.146,0.324-0.213,0.487
		c-0.215,0.488-0.427,0.983-0.631,1.487c-0.848,2.095-1.259,5.021-1.555,7.893c-0.389,3.818,1.036,9.295-1.429,11.54
		c0.097,1.078,0.404,2.139,0.671,3.196c-3.813,7.153-29.995,6.277-32.767-4.284c0.008-0.515,0.031-1.119-0.055-1.76
		c-0.06-0.289-0.146-0.599-0.306-0.949c0.031,0.015,0.063,0.021,0.095,0.033c-0.03-0.096-0.063-0.189-0.102-0.289
		c-0.146-1.494-0.68-3.021-0.743-4.43C396.895,222.82,397.543,218.183,397.367,213.164z" />
		<linearGradient id="SVGID_29_" gradientUnits="userSpaceOnUse" x1="1487.0195" y1="1764.8535" x2="1538.6826" y2="1764.8535" gradientTransform="matrix(-0.4271 0 0 0.4271 1055.2996 -512.9031)">
			<stop offset="0" style="stop-color:#FAD6C7" />
			<stop offset="1" style="stop-color:#E4857F" /> </linearGradient>
		<path fill="url(#SVGID_29_)" d="M418.448,232.964c-0.53,0.329-1.13,0.601-1.74,0.848c-0.004-0.057-0.013-0.104-0.021-0.153
		c-0.164,0.144-0.352,0.268-0.552,0.378c-0.352,0.134-0.696,0.266-1.029,0.396c-0.964,0.26-1.994,0.314-2.566,0.405
		c-1.019,0.157-3.425,0.512-4.451,0.764c-1.341,0.335-2.4,1.542-4.267,2.599l2.034,1.83c-0.438,0.21-0.873,0.318-1.313,0.272
		c-1.854-0.187-6.604-2.557-6.409-1.608c0.139,0.678,1.417,3.067,1.984,3.798c1.174,1.498,2.387,2.419,4.188,3.565
		c1.806,1.145,3.768,2.303,4.979,2.674c1.344,0.411,5.807-2.763,6.64-3.764c2.662-3.182,1.598-4.806,4.269-6.083L418.448,232.964z" />
		<linearGradient id="SVGID_30_" gradientUnits="userSpaceOnUse" x1="1428.9893" y1="1703.3848" x2="1501.4785" y2="1703.3848" gradientTransform="matrix(-0.4271 0 0 0.4271 1055.2996 -512.9031)">
			<stop offset="0" style="stop-color:#F6F6F6" />
			<stop offset="1" style="stop-color:#DCCCCA" /> </linearGradient>
		<path fill="url(#SVGID_30_)" d="M417.736,231.537c3.104-2.934,9.872-7.896,14.983-10.764c-0.671-2.344-1.124-4.757-1.579-6.583
		c-0.957-3.838-1.663-7.678-2.188-11.354c-0.208-1.473-0.354-2.216-0.526-3.713c-1.287-11.12,12.813-16.368,15.043-6.594
		c1.841,8.058,0.642,21.139,1.479,30.573c0.063,0.688,0.021,1.292-0.104,1.825c-0.004,0.133-0.015,0.26-0.028,0.388
		c-0.163,2.075-1.754,3.336-3.688,4.589c-4.973,3.22-9.073,7.314-17.979,10.135c-0.666,0.214-4.762,1.627-5.351,1.801
		c0.1-1.873-2.114-7.08-3.781-7.729C414.598,233.8,417.24,232.005,417.736,231.537z" />
		<linearGradient id="SVGID_31_" gradientUnits="userSpaceOnUse" x1="1470.1182" y1="1589.7852" x2="1521.5762" y2="1589.7852" gradientTransform="matrix(-0.4271 0 0 0.4271 1055.2996 -512.9031)">
			<stop offset="0" style="stop-color:#FAD6C7" />
			<stop offset="1" style="stop-color:#E4857F" /> </linearGradient>
		<path fill="url(#SVGID_31_)" d="M405.894,164.162c-0.684-1.49-2.398-16.75,11.119-16.38c13.521,0.367,9.779,15.346,9.779,15.346
		s0.999,0.443,0.46,2.373c-0.537,1.932-0.666,2.131-0.942,3.087c-0.257,0.898-0.868,2.508-2.063,2.48c0,0,0,0.003,0,0.005
		c0.021,0.128,0.055,0.271,0.087,0.421c0.007,0.029,0.015,0.064,0.021,0.098c0.021,0.116,0.051,0.237,0.079,0.365
		c0.019,0.063,0.03,0.13,0.048,0.193c0.021,0.104,0.051,0.21,0.076,0.322c0.021,0.077,0.041,0.159,0.063,0.24
		c0.026,0.107,0.058,0.219,0.088,0.33c0.021,0.092,0.049,0.184,0.074,0.274c0.028,0.114,0.063,0.229,0.099,0.349
		c0.028,0.101,0.061,0.2,0.092,0.303c0.035,0.128,0.076,0.253,0.114,0.384c0.034,0.104,0.063,0.202,0.102,0.313
		c0.048,0.147,0.1,0.308,0.149,0.46c0.031,0.091,0.061,0.187,0.093,0.278c0.089,0.254,0.181,0.517,0.276,0.788
		c0.21,0.58,0.118,1.228-0.27,1.713c-0.101,0.122-0.21,0.255-0.33,0.399c-0.029,0.038-0.066,0.077-0.104,0.117
		c-0.099,0.113-0.195,0.229-0.304,0.354c-0.023,0.028-0.059,0.06-0.081,0.09c-0.128,0.143-0.26,0.289-0.399,0.439
		c-0.014,0.017-0.026,0.029-0.041,0.047c-0.157,0.17-0.321,0.343-0.499,0.521c-0.002,0.005-0.006,0.008-0.009,0.013
		c-0.561,0.567-1.19,1.167-1.891,1.734h-0.001c-0.229,0.188-0.457,0.366-0.691,0.544c-0.007,0.004-0.017,0.011-0.021,0.017l0,0
		c-1.681,1.247-3.628,2.234-5.604,2.234c0,0-2.108-1.663-2.856-3.865l0,0c-0.003-0.009-0.004-0.017-0.01-0.021
		c-0.116-0.36-0.198-0.732-0.229-1.119c-1.385,0.155-2.882-0.438-3.233-1.751c-0.42-1.559-3.371-6.075-3.478-9.565
		C405.578,165.444,406.575,165.65,405.894,164.162z" />
		<path opacity="0.2" fill="#EF9EA3" enable-background="new    " d="M426.79,163.128c0,0,3.295-13.203-7.491-15.121
		c1.277,1.531,2.062,3.468,1.975,5.438c-0.125,2.814,0.016,8.319-1.623,10.47c1.188,1.478,1.929,9.507-2.117,12.252
		c-1.896,1.286-3.854,2.414-6.068,2.517c-0.607,0.024-1.241-0.057-1.87-0.205c0.788,0.908,2.313,1.187,3.532,0.771
		c8.832-3.008,10.872-8.21,10.872-8.21c1.357,0.277,2.036-1.493,2.313-2.45c0.275-0.956,0.403-1.155,0.941-3.087
		C427.791,163.573,426.79,163.128,426.79,163.128z" />
		<path fill="#1D1D1B" d="M416.176,146.777c-12.646,0.55-13.628,14.529-8.956,14.525c5.218-0.008,10.512-5.503,13.17-4.229
		c3.12,1.493,0.846,3.114,0.846,9.394c0,0,0.19,2.203,0.799,2.203c0.834-0.002,1.345-2.272,1.493-2.813
		c0.271-0.984,2.25-4.07,3.907-1.564C431.989,154.074,425.38,146.376,416.176,146.777z" /> </g>
	<linearGradient id="SVGID_32_" gradientUnits="userSpaceOnUse" x1="1410.6025" y1="655.2305" x2="1410.6025" y2="1042.9238" gradientTransform="matrix(1 0 0 1 -990.6406 -641.8398)">
		<stop offset="0" style="stop-color:#D4ECFF;stop-opacity:0" />
		<stop offset="0.2796" style="stop-color:#54EEFF;stop-opacity:0.1" />
		<stop offset="1" style="stop-color:#158CFF;stop-opacity:0.8" /> </linearGradient>
	<path class="flicker-animation" fill="url(#SVGID_32_)" d="M509.311,13.391H330.611v336.72h0.021c0.202,13.046,8.856,26.055,26.001,35.951
	c34.691,20.028,91.625,20.028,126.515,0c17.236-9.896,25.941-22.905,26.146-35.951h0.02L509.311,13.391L509.311,13.391z" />
	<g class="up-animation">
		<g opacity="0.5">
			<path id="XMLID_10753_" opacity="0.5" fill="#A5CBEF" enable-background="new    " d="M474.313,134.58
			c-37.705-12.248-78.321-12.248-116.031,0c-1.395,0.452-2.815-0.563-2.815-2.031v-54.71c0-0.927,0.593-1.762,1.474-2.052
			c38.529-12.837,80.188-12.837,118.721,0c0.881,0.288,1.476,1.125,1.476,2.052v54.71
			C477.129,134.015,475.703,135.033,474.313,134.58z" />
			<path fill="#A5CBEF" d="M356.884,133.967V79.254c0-0.924,0.592-1.76,1.474-2.049c38.514-12.836,80.149-12.838,118.669-0.014
			c-0.202-0.649-0.704-1.186-1.369-1.404c-38.531-12.837-80.188-12.837-118.722,0c-0.878,0.288-1.472,1.125-1.472,2.052v54.71
			c0,0.994,0.658,1.771,1.517,2.031C356.922,134.389,356.884,134.187,356.884,133.967z" />
			<path id="XMLID_10752_" fill="#DBEAF9" d="M470.037,87.568c-15.854-5.43-32.264-8.604-48.771-9.53l-0.002-3.781
			c16.511,0.933,32.924,4.103,48.771,9.529L470.037,87.568L470.037,87.568z" />
			<path id="XMLID_10751_" fill="#DBEAF9" d="M470.037,96.553c-15.854-5.429-32.264-8.604-48.771-9.533l-0.002-3.779
			c16.511,0.931,32.924,4.101,48.771,9.533L470.037,96.553L470.037,96.553z" />
			<path id="XMLID_10750_" fill="#DBEAF9" d="M470.037,105.532c-15.854-5.424-32.264-8.604-48.771-9.532l-0.002-3.777
			c16.511,0.927,32.924,4.103,48.771,9.529L470.037,105.532L470.037,105.532z" />
			<path id="XMLID_10749_" fill="#DBEAF9" d="M470.037,114.516c-15.854-5.428-32.264-8.606-48.771-9.534l-0.002-3.779
			c16.511,0.929,32.924,4.098,48.771,9.531L470.037,114.516L470.037,114.516z" />
			<path id="XMLID_10748_" fill="#DBEAF9" d="M444.32,116.744c-7.63-1.418-15.33-2.345-23.056-2.773l-0.001-3.785
			c7.719,0.436,15.406,1.354,23.026,2.771L444.32,116.744z" />
			<path fill="#A5CBEF" d="M370.715,123.063l-5.675,1.396v-21.858l5.675-1.271V123.063z M381.541,86.398l-5.678,0.973v34.631
			l5.678-1.104V86.398z M392.364,90.521l-5.674,0.709v28.954l5.674-0.84V90.521z M403.19,93.3l-5.675,0.194V118.9l5.675-0.327V93.3z
			 M414.017,96.684l-5.673-0.134v21.86h5.673V96.684z" /> </g>
		<g id="XMLID_144_" opacity="0.62">
			<path id="XMLID_147_" fill="#A5CBEF" d="M266.64,147.423c0,0-5.483-18.944,25.426-27.416v106.19c0,0-27.795,1.854-25.803,19.809
			L266.64,147.423z" />
			<path id="XMLID_146_" fill="#F6F9FC" d="M369.469,205.841c0,0-88.247-22.936-103.204-61.818v105.7
			c14.957,38.89,103.204,61.817,103.204,61.817V205.841z" />
			<g>
				<linearGradient id="SVGID_33_" gradientUnits="userSpaceOnUse" x1="1055.5898" y1="1817.9756" x2="1297.2324" y2="1817.9756" gradientTransform="matrix(0.4271 0 0 0.4271 -185.5804 -512.9031)">
					<stop offset="0.1499" style="stop-color:#FF9800" />
					<stop offset="1" style="stop-color:#FFC107" /> </linearGradient>
				<path fill="url(#SVGID_33_)" d="M368.468,240.012c-5.192,3.735-10.326,7.672-16.426,9.28
				c-10.08,2.656-21.656-2.311-26.676-11.443c-1.858-3.376-3.067-7.428-6.31-9.519c-4.733-3.058-11.047-0.264-15.5,3.195
				c-4.457,3.452-8.926,7.804-14.563,7.958c-6.064,0.162-11.096-4.689-14.363-9.803c-3.049-4.771-5.371-10.151-9.369-14.109v34.146
				c14.957,38.891,103.204,61.821,103.204,61.821L368.468,240.012L368.468,240.012z" /> </g>
			<path id="XMLID_145_" fill="#A5CBEF" d="M266.265,144.019v4.167c18.06,37.13,101.915,58.942,101.915,58.942v104.056
			c0.813,0.228,1.289,0.354,1.289,0.354V205.841C369.469,205.841,281.223,182.905,266.265,144.019z" /> </g>
		<g id="XMLID_148_" opacity="0.5">
			<path id="XMLID_156_" fill="#A5CBEF" d="M571.477,127.791c0,0,5.374-18.564-24.921-26.876V205c0,0,27.244,1.82,25.286,19.414
			L571.477,127.791z" />
			<path id="XMLID_155_" fill="#F9FBFD" d="M470.69,185.045c0,0,86.491-22.479,101.151-60.592v103.595
			c-14.66,38.117-101.151,60.601-101.151,60.601V185.045L470.69,185.045z" />
			<path id="XMLID_154_" fill="#C9E0F5" d="M493.256,194.869c0,0,67.199-17.464,78.586-47.074v5.814
			c-8.902,25.395-78.586,46.092-78.586,46.092V194.869L493.256,194.869z" />
			<path id="XMLID_153_" fill="#C9E0F5" d="M493.256,211.076c0,0,67.199-17.46,78.586-47.072v5.819
			c-8.902,25.389-78.586,46.088-78.586,46.088V211.076L493.256,211.076z" />
			<path id="XMLID_152_" fill="#C9E0F5" d="M493.256,227.286c0,0,67.199-17.462,78.586-47.074v5.815
			c-8.902,25.392-78.586,46.094-78.586,46.094V227.286L493.256,227.286z" />
			<path id="XMLID_151_" fill="#C9E0F5" d="M493.256,243.494c0,0,67.199-17.466,78.586-47.074v5.818
			c-8.902,25.392-78.586,46.091-78.586,46.091V243.494L493.256,243.494z" />
			<path id="XMLID_150_" fill="#C9E0F5" d="M493.256,259.704c0,0,67.199-17.472,78.586-47.081v5.816
			c-8.902,25.396-78.586,46.097-78.586,46.097V259.704L493.256,259.704z" />
			<path id="XMLID_149_" fill="#A5CBEF" d="M571.844,124.453v4.09c-17.702,36.393-99.889,57.771-99.889,57.771v101.984
			c-0.797,0.224-1.264,0.349-1.264,0.349V185.045C470.69,185.045,557.184,162.566,571.844,124.453z" /> </g>
	</g>
	<g class="flr-animation">
		<linearGradient id="XMLID_5_" gradientUnits="userSpaceOnUse" x1="710.1387" y1="1889.7559" x2="833.9219" y2="1889.7559" gradientTransform="matrix(0.4271 0 0 0.4271 -185.5804 -512.9031)">
			<stop offset="0" style="stop-color:#128BEB" />
			<stop offset="1" style="stop-color:#126BEB" /> </linearGradient>
		<path id="XMLID_172_" fill="url(#XMLID_5_)" d="M144.154,263.688c-14.539-8.396-26.434-1.521-26.434,15.266
		c0,16.781,11.896,37.389,26.434,45.781c14.539,8.396,26.434,1.525,26.434-15.26C170.587,292.686,158.692,272.085,144.154,263.688z" />
		<linearGradient id="XMLID_6_" gradientUnits="userSpaceOnUse" x1="702.0674" y1="1891.7754" x2="825.8516" y2="1891.7754" gradientTransform="matrix(0.4271 0 0 0.4271 -185.5804 -512.9031)">
			<stop offset="0" style="stop-color:#FFFFFF" />
			<stop offset="0.2442" style="stop-color:#EFF8FE" />
			<stop offset="0.7224" style="stop-color:#C4E5FC" />
			<stop offset="1" style="stop-color:#A8D9FB" /> </linearGradient>
		<path id="XMLID_171_" fill="url(#XMLID_6_)" d="M140.708,264.546c-14.542-8.39-26.435-1.519-26.435,15.265
		c0,16.793,11.894,37.395,26.435,45.789c14.539,8.396,26.433,1.521,26.433-15.264C167.141,293.549,155.247,272.943,140.708,264.546z
		" />
		<g id="XMLID_162_">
			<linearGradient id="SVGID_34_" gradientUnits="userSpaceOnUse" x1="4272.3086" y1="1562.4609" x2="4298.4434" y2="1562.4609" gradientTransform="matrix(-0.4271 0 0 0.4271 2039.2118 -512.9031)">
				<stop offset="0" style="stop-color:#128BEB" />
				<stop offset="1" style="stop-color:#126BEB" /> </linearGradient>
			<path fill="url(#SVGID_34_)" d="M208.426,160.563c-2.833-1.64-5.054-5.483-5.054-8.758c0-1.773,0.657-3.135,1.853-3.825
			c1.198-0.69,2.709-0.591,4.254,0.3c2.841,1.636,5.065,5.479,5.055,8.764c-0.004,1.777-0.666,3.143-1.863,3.828
			c-0.519,0.304-1.096,0.448-1.708,0.448C210.162,161.32,209.3,161.065,208.426,160.563z M207.402,151.745
			c-0.297,0.169-0.469,0.6-0.469,1.17c0,1.447,1.061,3.283,2.317,4.01c0.495,0.286,0.95,0.351,1.25,0.183
			c0.3-0.174,0.473-0.601,0.476-1.175c0.003-1.452-1.059-3.29-2.317-4.01c-0.313-0.186-0.613-0.271-0.863-0.271
			C207.646,151.65,207.514,151.68,207.402,151.745z" /> </g>
		<g id="XMLID_161_">
			<linearGradient id="SVGID_35_" gradientUnits="userSpaceOnUse" x1="4397.5508" y1="1757.5938" x2="4423.5537" y2="1757.5938" gradientTransform="matrix(-0.4271 0 0 0.4271 2039.2118 -512.9031)">
				<stop offset="0" style="stop-color:#128BEB" />
				<stop offset="1" style="stop-color:#126BEB" /> </linearGradient>
			<path fill="url(#SVGID_35_)" d="M154.967,243.875c-2.822-1.629-5.029-5.459-5.029-8.711c0-1.771,0.654-3.126,1.841-3.811
			c1.194-0.688,2.695-0.583,4.234,0.299c2.827,1.625,5.038,5.452,5.031,8.718c-0.004,1.771-0.661,3.125-1.854,3.814
			c-0.517,0.295-1.09,0.443-1.7,0.443C156.694,244.628,155.834,244.378,154.967,243.875z M153.949,235.099
			c-0.298,0.172-0.468,0.598-0.468,1.163c0,1.443,1.056,3.271,2.306,3.991c0.491,0.281,0.945,0.35,1.242,0.181
			c0.298-0.177,0.469-0.598,0.472-1.172c0.003-1.445-1.053-3.268-2.305-3.988c-0.312-0.185-0.609-0.271-0.86-0.271
			C154.188,235.003,154.058,235.033,153.949,235.099z" /> </g>
		<linearGradient id="XMLID_7_" gradientUnits="userSpaceOnUse" x1="744.1094" y1="1669.4258" x2="938.7197" y2="1669.4258" gradientTransform="matrix(0.4271 0 0 0.4271 -185.5804 -512.9031)">
			<stop offset="0" style="stop-color:#FFFFFF" />
			<stop offset="0.2442" style="stop-color:#EFF8FE" />
			<stop offset="0.7224" style="stop-color:#C4E5FC" />
			<stop offset="1" style="stop-color:#A8D9FB" /> </linearGradient>
		<path id="XMLID_295_" fill="url(#XMLID_7_)" d="M134.171,148.445c-1.07-0.618-1.942-0.117-1.942,1.122v53.1
		c0,1.232,0.875,2.75,1.942,3.364l79.233,45.744c1.068,0.614,1.943,0.114,1.943-1.123v-53.098c0-1.235-0.875-2.75-1.943-3.365
		L134.171,148.445z" />
		<linearGradient id="SVGID_36_" gradientUnits="userSpaceOnUse" x1="750.0078" y1="1612.3545" x2="943.2675" y2="1728.4603" gradientTransform="matrix(0.4271 0 0 0.4271 -185.5804 -512.9031)">
			<stop offset="0" style="stop-color:#128BEB" />
			<stop offset="1" style="stop-color:#126BEB" /> </linearGradient>
		<path fill="url(#SVGID_36_)" d="M213.403,194.189l-79.232-45.744c-1.068-0.618-1.942-0.117-1.942,1.122v0.511l78.615,45.386
		c1.069,0.621,1.943,2.139,1.943,3.369v52.584l0.617,0.356c1.068,0.616,1.943,0.115,1.943-1.122V197.55
		C215.347,196.319,214.472,194.805,213.403,194.189z" />
		<linearGradient id="XMLID_8_" gradientUnits="userSpaceOnUse" x1="798.5801" y1="1663.1094" x2="923.5332" y2="1663.1094" gradientTransform="matrix(0.4271 0 0 0.4271 -185.5804 -512.9031)">
			<stop offset="0" style="stop-color:#128BEB" />
			<stop offset="1" style="stop-color:#126BEB" /> </linearGradient>
		<polygon id="XMLID_294_" fill="url(#XMLID_8_)" points="155.493,179.94 208.861,211.503 208.861,214.882 155.493,183.475 	" />
		<linearGradient id="XMLID_9_" gradientUnits="userSpaceOnUse" x1="798.5801" y1="1687.7188" x2="923.5332" y2="1687.7188" gradientTransform="matrix(0.4271 0 0 0.4271 -185.5804 -512.9031)">
			<stop offset="0" style="stop-color:#128BEB" />
			<stop offset="1" style="stop-color:#126BEB" /> </linearGradient>
		<polygon id="XMLID_293_" fill="url(#XMLID_9_)" points="155.493,190.451 208.861,222.012 208.861,225.392 155.493,193.984 	" />
		<linearGradient id="XMLID_10_" gradientUnits="userSpaceOnUse" x1="798.0684" y1="1694.9961" x2="862.4141" y2="1694.9961" gradientTransform="matrix(0.4271 0 0 0.4271 -185.5804 -512.9031)">
			<stop offset="0.1499" style="stop-color:#FF9800" />
			<stop offset="1" style="stop-color:#FFC107" /> </linearGradient>
		<polygon id="XMLID_292_" fill="url(#XMLID_10_)" points="155.275,201.296 182.757,217.383 182.757,220.764 155.275,204.831 	" />
		<linearGradient id="SVGID_37_" gradientUnits="userSpaceOnUse" x1="750.3096" y1="1636.8535" x2="786.8955" y2="1636.8535" gradientTransform="matrix(0.4271 0 0 0.4271 -185.5804 -512.9031)">
			<stop offset="0" style="stop-color:#128BEB" />
			<stop offset="1" style="stop-color:#126BEB" /> </linearGradient>
		<path fill="url(#SVGID_37_)" d="M150.503,189.894c0,6.612-3.721,9.991-8.126,7.646c-4.215-2.244-7.5-8.939-7.5-15.045
		c0-6.1,3.285-9.688,7.5-7.942C146.784,176.379,150.503,183.28,150.503,189.894z" />
		<g>
			<linearGradient id="SVGID_38_" gradientUnits="userSpaceOnUse" x1="747.5117" y1="1891.7539" x2="784.3438" y2="1891.7539" gradientTransform="matrix(0.4271 0 0 0.4271 -185.5804 -512.9031)">
				<stop offset="0" style="stop-color:#128BEB" />
				<stop offset="1" style="stop-color:#126BEB" /> </linearGradient>
			<path fill="url(#SVGID_38_)" d="M141.121,279.027c2.234,1.229,4.538,2.512,6.911,3.813c0.478,0.268,0.875,0.801,1.156,1.79
			c0.16,0.556,0.222,1.122,0.22,1.688c-0.002,1.828,0.021,3.67-0.018,5.474c-0.046,2.251-0.468,3.983-1.2,5.206
			c-0.692,1.156-1.546,1.604-2.54,1.359c-0.265-0.065-0.54-0.242-0.806-0.351c-0.07-0.021-0.154-0.017-0.199,0.062
			c-0.639,1.05-1.402,1.547-2.289,1.479c-0.084-0.005-0.172-0.02-0.258-0.053c-0.104-0.04-0.148,0.02-0.148,0.27
			c0.005,1.361,0.004,2.725,0,4.078c0,0.229,0.036,0.36,0.13,0.521c0.803,1.348,1.311,3.021,1.49,5.033
			c0.018,0.217,0.029,0.438,0.03,0.646c0.002,0.214,0.047,0.295,0.135,0.359c0.283,0.205,0.568,0.434,0.854,0.637
			c0.11,0.074,0.144,0.184,0.143,0.404c-0.005,0.994-0.009,1.99,0.001,2.99c0.002,0.293-0.042,0.322-0.171,0.226
			c-1.327-1.04-2.63-2.05-3.911-3.044c-0.947-0.732-1.881-1.463-2.806-2.18c-0.149-0.117-0.152-0.123-0.152-0.457
			c0-0.937,0.002-1.863-0.005-2.803c0-0.25,0.029-0.316,0.146-0.227c0.251,0.209,0.507,0.379,0.762,0.582
			c0.101,0.084,0.133,0.056,0.141-0.18c0.078-1.961,0.545-3.057,1.375-3.339c0.196-0.067,0.201-0.041,0.201-0.53
			c0-1.293,0-2.582,0.002-3.869c0.001-0.213-0.03-0.319-0.123-0.426c-0.957-1.104-1.761-2.652-2.402-4.664
			c-0.066-0.203-0.13-0.309-0.226-0.371c-1.641-1.133-3.12-4.512-3.65-8.265c-0.157-1.104-0.232-2.188-0.232-3.259
			c0-1.438,0-2.875,0-4.313c0-1.064,0.26-1.791,0.698-1.888c0.14-0.028,0.297,0.029,0.447,0.111
			C136.864,276.673,138.962,277.836,141.121,279.027z M139.643,285.366c0-0.011,0-0.019,0-0.025
			c-0.295-0.142-0.589-0.294-0.879-0.424c-0.117-0.054-0.188,0.123-0.154,0.367c0.017,0.127,0.061,0.265,0.106,0.368
			c0.372,0.886,0.751,1.766,1.127,2.662c0.038,0.093,0.078,0.281,0.069,0.358c-0.125,0.952-0.263,1.896-0.397,2.832
			c-0.029,0.202-0.053,0.412,0.045,0.644c0.095,0.215,0.183,0.175,0.268,0.101c0.397-0.328,0.8-0.649,1.202-0.993
			c0.079-0.068,0.133-0.023,0.208,0.139c0.407,0.862,0.821,1.729,1.235,2.601c0.084,0.173,0.171,0.298,0.258,0.216
			c0.084-0.079,0.091-0.261,0.059-0.498c-0.139-1.105-0.269-2.216-0.406-3.316c-0.032-0.252-0.028-0.433,0.079-0.508
			c0.1-0.072,0.188-0.191,0.279-0.289c0.304-0.326,0.612-0.646,0.912-0.99c0.051-0.059,0.089-0.24,0.084-0.391
			c-0.003-0.193-0.084-0.354-0.182-0.425c-0.03-0.021-0.061-0.055-0.09-0.071c-0.433-0.295-0.863-0.596-1.292-0.869
			c-0.286-0.188-0.286-0.176-0.388-0.813c-0.011-0.078-0.023-0.148-0.035-0.227c-0.145-0.943-0.29-1.879-0.433-2.817
			c-0.032-0.207-0.082-0.375-0.187-0.438c-0.105-0.07-0.155,0.049-0.187,0.217c-0.006,0.035-0.014,0.072-0.022,0.109
			c-0.163,0.883-0.326,1.768-0.487,2.646c-0.026,0.143-0.058,0.209-0.147,0.156C140.072,285.559,139.856,285.469,139.643,285.366z
			 M136.987,290.309c-0.008-0.134-0.006-0.188-0.013-0.24c-0.232-1.402-0.307-2.77-0.303-4.107c0.006-2.253,0-4.51,0.004-6.76
			c0-0.247-0.028-0.35-0.144-0.411c-0.568-0.313-1.131-0.64-1.69-0.954c-0.155-0.091-0.167-0.064-0.167,0.29
			c0,1.354-0.01,2.696,0.005,4.062c0.007,0.637,0.037,1.301,0.108,1.945c0.258,2.32,0.871,4.188,1.791,5.627
			C136.703,289.952,136.834,290.104,136.987,290.309z M145.52,295.8c0.027,0.015,0.049,0.021,0.07,0.025
			c0.42,0.063,0.807-0.063,1.158-0.384c0.888-0.813,1.395-2.336,1.441-4.644c0.032-1.653,0.009-3.353,0.017-5.022
			c0-0.258-0.045-0.373-0.168-0.442c-0.668-0.372-1.33-0.751-1.985-1.126c-0.174-0.098-0.174-0.098-0.174,0.263
			c0,2.563,0.009,5.136-0.005,7.689c-0.005,0.724-0.061,1.418-0.125,2.096C145.697,294.781,145.601,295.266,145.52,295.8z" /> </g>
		<linearGradient id="XMLID_11_" gradientUnits="userSpaceOnUse" x1="901.7139" y1="1896.4844" x2="1069.349" y2="1997.1953" gradientTransform="matrix(0.4271 0 0 0.4271 -185.5804 -512.9031)">
			<stop offset="0" style="stop-color:#128BEB" />
			<stop offset="1" style="stop-color:#126BEB" /> </linearGradient>
		<path id="XMLID_136_" fill="url(#XMLID_11_)" d="M199.008,273.491c-0.938-0.528-1.704-0.099-1.704,0.961v45.373
		c0,1.05,0.768,2.347,1.704,2.874l69.493,39.088c0.937,0.525,1.703,0.095,1.703-0.958v-45.374c0-1.057-0.766-2.346-1.703-2.875
		L199.008,273.491z" />
		<g>
			<g>
				
					<linearGradient id="XMLID_00000002357798067289720960000006480351671610748322_" gradientUnits="userSpaceOnUse" x1="882.0358" y1="-1672.078" x2="935.8077" y2="-1672.078" gradientTransform="matrix(0.4271 0 0 -0.4271 -145.5858 -449.796)">
					<stop  offset="0" style="stop-color:#128BEB"/>
					<stop  offset="1" style="stop-color:#126BEB"/>
				</linearGradient>
				
					<path id="XMLID_00000145739793023545574240000005599346072102420882_" style="fill:url(#XMLID_00000002357798067289720960000006480351671610748322_);" d="
					M254.1,271c0,7.3-5.2,10.3-11.5,6.6c-6.3-3.6-11.5-12.6-11.5-19.9c0-7.3,5.2-10.3,11.5-6.6C248.9,254.7,254.1,263.7,254.1,271z"
					/>
				
					<linearGradient id="XMLID_00000134238221823692027210000014968505651424693674_" gradientUnits="userSpaceOnUse" x1="878.5254" y1="-1672.9534" x2="932.3072" y2="-1672.9534" gradientTransform="matrix(0.4271 0 0 -0.4271 -145.5858 -449.796)">
					<stop  offset="0" style="stop-color:#FFFFFF"/>
					<stop  offset="0.2442" style="stop-color:#EFF8FE"/>
					<stop  offset="0.7224" style="stop-color:#C4E5FC"/>
					<stop  offset="1" style="stop-color:#A8D9FB"/>
				</linearGradient>
				
					<path id="XMLID_00000069367605916442373250000008427529349603474604_" style="fill:url(#XMLID_00000134238221823692027210000014968505651424693674_);" d="
					M252.6,271.4c0,7.3-5.2,10.3-11.5,6.6c-6.3-3.6-11.5-12.6-11.5-19.9c0-7.3,5.2-10.3,11.5-6.6
					C247.4,255.1,252.6,264.1,252.6,271.4z"/>
			</g>
			<g>
				<g>
					<path style="fill:#128BEB;" d="M240.5,266.1l-0.1-0.1v0.2l0.1,0.1V266.1z M240.7,266.6v-0.1l-0.1-0.1v0.1L240.7,266.6z
						 M239.9,266.2L239.9,266.2L239.9,266.2v0.1V266.2z M240.7,266l-0.2-0.1v0.2l0.2,0.1V266z M240.5,266.6v-0.1l-0.1-0.1
						L240.5,266.6L240.5,266.6z M241.3,266.6v-0.2l-0.2-0.1v0.2L241.3,266.6L241.3,266.6z M241.6,266.6v-0.2l-0.2-0.1v0.2
						L241.6,266.6z M241,266l-0.2-0.1v0.2l0.2,0.1V266z M241,266.6v-0.2l-0.1-0.1v0.2L241,266.6z M239.6,266.3L239.6,266.3
						L239.6,266.3v-0.1V266.3z M240.3,266.5L240.3,266.5L240.3,266.5v0.1V266.5z M240.3,266.1l-0.1-0.1v0.1l0.1,0.1V266.1z
						 M240.4,265.7l-0.2-0.1v0.2l0.2,0.1V265.7z M240.2,265.8l-0.1-0.1v0.2l0.1,0.1V265.8z M239.8,265.9L239.8,265.9L239.8,265.9
						v0.1V265.9z M240,265.9l-0.1-0.1v0.1l0.1,0.1V265.9z M240.1,266.2L240.1,266.2L240.1,266.2v0.1V266.2z M240.1,266.5
						L240.1,266.5L240.1,266.5v0.1V266.5z M241.4,268.6c-3-1.8-2.9-4.5-2.4-5.5c0.7-1.5,2.6-1.5,3.4-0.2c0.9,1.5-1.9,2.7-1.9,2.7
						v0.2l0.2,0.1v-0.2l0.2,0.1v0.2l0.3,0.2v-0.2l0.2,0.1l0,0.2l0.2,0.1c0,0,4-1.4,2.6-3.9c-1.1-2-3.4-2.9-5.3-1.8
						c-1.6,0.9-1.9,2.7-1.9,2.7c0.1-0.2,0.4-0.4,0.4-0.4c-0.5,3.8,1.9,6.3,2.9,6.9c3.6,2.3,5.4-1.8,5.4-1.8
						C245,269.4,242.8,269.4,241.4,268.6z"/>
				</g>
			</g>
		</g>
		<linearGradient id="SVGID_39_" gradientUnits="userSpaceOnUse" x1="904.5762" y1="1893.3799" x2="1073.4332" y2="1994.825" gradientTransform="matrix(0.4271 0 0 0.4271 -185.5804 -512.9031)">
			<stop offset="0" style="stop-color:#FFFFFF" />
			<stop offset="0.2442" style="stop-color:#EFF8FE" />
			<stop offset="0.7224" style="stop-color:#C4E5FC" />
			<stop offset="1" style="stop-color:#A8D9FB" /> </linearGradient>
		<path fill="url(#SVGID_39_)" d="M269.493,311.919l-69.289-39.92c-0.933-0.542-1.698-0.101-1.698,0.979v0.439l68.749,39.612
		c0.937,0.536,1.701,1.862,1.701,2.938v45.892l0.539,0.313c0.934,0.537,1.698,0.102,1.698-0.979v-46.342
		C271.191,313.775,270.427,312.457,269.493,311.919z" />
		<linearGradient id="XMLID_12_" gradientUnits="userSpaceOnUse" x1="944.5117" y1="1936.6592" x2="1054.7139" y2="1936.6592" gradientTransform="matrix(0.4271 0 0 0.4271 -185.5804 -512.9031)">
			<stop offset="0" style="stop-color:#FFFFFF" />
			<stop offset="0.2442" style="stop-color:#EFF8FE" />
			<stop offset="0.7224" style="stop-color:#C4E5FC" />
			<stop offset="1" style="stop-color:#A8D9FB" /> </linearGradient>
		<polygon id="XMLID_135_" fill="url(#XMLID_12_)" points="217.821,298.836 264.888,326.672 264.888,329.652 217.821,301.956 	" />
		<linearGradient id="XMLID_13_" gradientUnits="userSpaceOnUse" x1="944.0625" y1="1958.3242" x2="1049.8906" y2="1958.3242" gradientTransform="matrix(0.4271 0 0 0.4271 -185.5804 -512.9031)">
			<stop offset="0" style="stop-color:#FFFFFF" />
			<stop offset="0.2442" style="stop-color:#EFF8FE" />
			<stop offset="0.7224" style="stop-color:#C4E5FC" />
			<stop offset="1" style="stop-color:#A8D9FB" /> </linearGradient>
		<polygon id="XMLID_82_" fill="url(#XMLID_13_)" points="217.629,308.702 262.828,335.43 262.828,338.292 217.629,311.693 	" />
		<linearGradient id="XMLID_14_" gradientUnits="userSpaceOnUse" x1="944.0625" y1="1964.7852" x2="1000.8086" y2="1964.7852" gradientTransform="matrix(0.4271 0 0 0.4271 -185.5804 -512.9031)">
			<stop offset="0" style="stop-color:#FFFFFF" />
			<stop offset="0.2442" style="stop-color:#EFF8FE" />
			<stop offset="0.7224" style="stop-color:#C4E5FC" />
			<stop offset="1" style="stop-color:#A8D9FB" /> </linearGradient>
		<polygon id="XMLID_81_" fill="url(#XMLID_14_)" points="217.629,317.673 241.865,331.857 241.865,334.841 217.629,320.79 	" />
		<text transform="matrix(0.5595 0.3928 0.0525 0.9986 138.4624 188.2563)" fill="#FFFFFF" font-family="'MicrosoftYaHei-Bold'" font-size="14.129">考</text>
		<linearGradient id="SVGID_40_" gradientUnits="userSpaceOnUse" x1="904.4775" y1="1915.0889" x2="938.1367" y2="1915.0889" gradientTransform="matrix(0.4271 0 0 0.4271 -185.5804 -512.9031)">
			<stop offset="0" style="stop-color:#FFFFFF" />
			<stop offset="0.2442" style="stop-color:#EFF8FE" />
			<stop offset="0.7224" style="stop-color:#C4E5FC" />
			<stop offset="1" style="stop-color:#A8D9FB" /> </linearGradient>
		<path fill="url(#SVGID_40_)" d="M215.098,308.432c0,6.086-3.423,9.191-7.476,7.035c-3.877-2.063-6.9-8.226-6.9-13.842
		c0-5.609,3.022-8.912,6.9-7.307C211.676,295.998,215.098,302.348,215.098,308.432z" />
		<text transform="matrix(0.6154 0.4133 0.0687 0.9976 203.6665 306.1094)" fill="#0074FF" font-family="'MicrosoftYaHei-Bold'" font-size="12.763">练</text>
	</g>
	<g>
		<g class="flr-animation">
			<g id="XMLID_10768_">
				<linearGradient id="SVGID_41_" gradientUnits="userSpaceOnUse" x1="1911.459" y1="1830.1895" x2="1932.9063" y2="1830.1895" gradientTransform="matrix(0.4271 0 0 0.4271 -221.599 -512.9031)">
					<stop offset="0" style="stop-color:#128BEB" />
					<stop offset="1" style="stop-color:#126BEB" /> </linearGradient>
				<path fill="url(#SVGID_41_)" d="M597.7,274.428c-0.505,0-0.979-0.121-1.401-0.361c-0.98-0.567-1.526-1.688-1.532-3.146
				c-0.004-2.691,1.817-5.85,4.151-7.188c1.271-0.731,2.509-0.813,3.488-0.25c0.979,0.567,1.521,1.684,1.521,3.144
				c0,2.688-1.825,5.847-4.147,7.188C599.063,274.219,598.354,274.428,597.7,274.428z M600.3,266.489
				c-0.208,0-0.449,0.073-0.71,0.224c-1.031,0.596-1.902,2.104-1.9,3.296c0.003,0.47,0.146,0.819,0.393,0.959
				c0.247,0.142,0.617,0.091,1.023-0.145c1.03-0.597,1.899-2.104,1.899-3.296c0-0.469-0.14-0.816-0.387-0.961
				C600.53,266.518,600.42,266.489,600.3,266.489z" /> </g>
			<g id="XMLID_141_">
				<linearGradient id="SVGID_42_" gradientUnits="userSpaceOnUse" x1="1952.0967" y1="1943.791" x2="1964.0635" y2="1943.791" gradientTransform="matrix(0.4271 0 0 0.4271 -221.599 -512.9031)">
					<stop offset="0" style="stop-color:#128BEB" />
					<stop offset="1" style="stop-color:#126BEB" /> </linearGradient>
				<path fill="url(#SVGID_42_)" d="M613.754,320.451c-0.282,0-0.544-0.068-0.779-0.205c-0.549-0.313-0.854-0.938-0.854-1.758
				c-0.008-1.504,1.015-3.262,2.314-4.012c0.703-0.41,1.396-0.457,1.947-0.145c0.546,0.318,0.85,0.939,0.85,1.755
				c0,1.502-1.02,3.265-2.315,4.015C614.519,320.335,614.122,320.451,613.754,320.451z M615.207,316.018
				c-0.114,0-0.251,0.043-0.396,0.125c-0.574,0.332-1.061,1.174-1.061,1.842c0.003,0.265,0.082,0.457,0.215,0.535
				c0.143,0.08,0.352,0.051,0.577-0.08c0.571-0.332,1.06-1.174,1.06-1.84c0-0.265-0.073-0.457-0.217-0.537
				C615.336,316.034,615.274,316.018,615.207,316.018z" /> </g>
			<g id="XMLID_10769_">
				<linearGradient id="SVGID_43_" gradientUnits="userSpaceOnUse" x1="1939.7666" y1="1562.4609" x2="1967.8223" y2="1562.4609" gradientTransform="matrix(0.4271 0 0 0.4271 -221.599 -512.9031)">
					<stop offset="0" style="stop-color:#128BEB" />
					<stop offset="1" style="stop-color:#126BEB" /> </linearGradient>
				<path fill="url(#SVGID_43_)" d="M610.688,161.827c-0.655,0-1.274-0.162-1.834-0.477c-1.283-0.745-1.992-2.205-2-4.117
				c-0.011-3.521,2.378-7.653,5.431-9.406c1.659-0.951,3.278-1.063,4.564-0.321c1.282,0.74,1.987,2.197,1.987,4.108
				c0,3.516-2.387,7.645-5.429,9.4C612.477,161.556,611.548,161.827,610.688,161.827z M614.09,151.443
				c-0.271,0-0.588,0.098-0.931,0.288c-1.35,0.775-2.483,2.747-2.48,4.305c0.003,0.617,0.187,1.075,0.507,1.261
				c0.323,0.188,0.813,0.113,1.346-0.188c1.346-0.774,2.484-2.749,2.484-4.308c0-0.61-0.185-1.069-0.505-1.259
				C614.391,151.479,614.249,151.443,614.09,151.443z" /> </g>
			<g id="XMLID_10826_">
				<linearGradient id="SVGID_44_" gradientUnits="userSpaceOnUse" x1="2093.7773" y1="1830.1816" x2="2121.8281" y2="1830.1816" gradientTransform="matrix(0.4271 0 0 0.4271 -221.599 -512.9031)">
					<stop offset="0" style="stop-color:#128BEB" />
					<stop offset="1" style="stop-color:#126BEB" /> </linearGradient>
				<path fill="url(#SVGID_44_)" d="M676.466,276.172c-0.657,0-1.278-0.158-1.837-0.479c-1.284-0.74-1.994-2.205-2-4.117
				c-0.006-3.523,2.377-7.653,5.428-9.403c1.663-0.957,3.281-1.065,4.568-0.321c1.281,0.74,1.984,2.201,1.984,4.109
				c0,3.514-2.387,7.646-5.427,9.396C678.251,275.896,677.325,276.172,676.466,276.172z M679.867,265.786
				c-0.271,0-0.591,0.096-0.93,0.291c-1.349,0.776-2.486,2.748-2.479,4.306c0.002,0.618,0.185,1.074,0.506,1.264
				c0.321,0.188,0.813,0.111,1.343-0.188c1.352-0.783,2.48-2.757,2.48-4.313c0-0.614-0.182-1.068-0.5-1.26
				C680.168,265.818,680.024,265.786,679.867,265.786z" /> </g>
			<g>
				<linearGradient id="XMLID_15_" gradientUnits="userSpaceOnUse" x1="1875.0332" y1="1768.2988" x2="1986.2151" y2="1622.4218" gradientTransform="matrix(0.4271 0 0 0.4271 -185.5804 -512.9031)">
					<stop offset="0" style="stop-color:#128BEB" />
					<stop offset="1" style="stop-color:#126BEB" /> </linearGradient>
				<path id="XMLID_10766_" fill="url(#XMLID_15_)" d="M639.433,175.3c16.816-9.709,30.575-1.769,30.575,17.65
				c0,19.418-13.759,43.251-30.575,52.956c-16.813,9.713-30.572,1.768-30.572-17.65C608.858,208.84,622.617,185.007,639.433,175.3z" />
				<linearGradient id="XMLID_16_" gradientUnits="userSpaceOnUse" x1="2679.6455" y1="1696.332" x2="2822.8193" y2="1696.332" gradientTransform="matrix(-0.4271 0 0 0.4271 1818.4725 -512.9031)">
					<stop offset="0" style="stop-color:#FFFFFF" />
					<stop offset="0.2442" style="stop-color:#EFF8FE" />
					<stop offset="0.7224" style="stop-color:#C4E5FC" />
					<stop offset="1" style="stop-color:#A8D9FB" /> </linearGradient>
				<path id="XMLID_10765_" fill="url(#XMLID_16_)" d="M643.423,176.295c16.813-9.71,30.573-1.764,30.573,17.65
				c0,19.42-13.763,43.249-30.573,52.959c-16.817,9.711-30.576,1.767-30.576-17.65C612.847,209.834,626.605,186.005,643.423,176.295
				z" />
				<g>
					<linearGradient id="SVGID_50_" gradientUnits="userSpaceOnUse" x1="1133.3105" y1="531.9512" x2="1151.5879" y2="531.9512" gradientTransform="matrix(1 0 0 1 -495.3203 -320.9199)">
						<stop offset="0" style="stop-color:#128BEB" />
						<stop offset="1" style="stop-color:#126BEB" /> </linearGradient>
					<path fill="url(#SVGID_50_)" d="M639.043,220.872l7.755-4.954l-0.082-0.996l2.057-4.79l-6.415,4.032l-0.388-4.706l9.802-6.056
				l0.376,4.569l-2.594,6.185l6.333-4.049l0.381,4.646l-6.587,4.282l0.317,3.879c0.146,1.749,0.034,3.26-0.328,4.532
				c-0.365,1.274-1.004,2.227-1.919,2.855c-0.923,0.634-1.872,1.279-2.852,1.937c-0.313-1.66-0.649-3.22-1.019-4.683
				c0.902-0.488,1.723-0.977,2.459-1.463c0.815-0.54,1.159-1.585,1.031-3.142l-0.188-2.294l-7.747,5.039L639.043,220.872z
				 M640.697,195.04c0.854,1.329,1.734,2.854,2.646,4.571l-0.691,1.624l2.938-1.764c-0.657-1.76-1.253-3.228-1.785-4.399
				l1.971-3.316c0.592,1.279,1.301,2.964,2.128,5.053l-1.101,1.934l2.12-1.271c0.581-2.959,1.066-5.506,1.452-7.649l2.521,1.438
				l-1.072,4.469l2.436-1.463l0.755,9.223l-2.362,1.471l-0.384-4.673l-11.374,6.955l0.394,4.794l-2.515,1.564l-0.781-9.563
				l2.938-1.763c-0.651-1.246-1.281-2.375-1.884-3.384L640.697,195.04z" /> </g>
			</g>
			<linearGradient id="XMLID_17_" gradientUnits="userSpaceOnUse" x1="3978.7705" y1="1963.1816" x2="4102.9795" y2="1963.1816" gradientTransform="matrix(-0.4271 0 0 0.4271 2290.6377 -512.9031)">
				<stop offset="0" style="stop-color:#128BEB" />
				<stop offset="1" style="stop-color:#126BEB" /> </linearGradient>
			<g class="flr-animation">
				<path id="XMLID_140_" fill="url(#XMLID_17_)" d="M564.783,294.943c14.589-8.424,26.521-1.527,26.521,15.313
			c0,16.85-11.938,37.521-26.521,45.943c-14.592,8.423-26.528,1.533-26.528-15.311C538.253,324.045,550.188,303.372,564.783,294.943
			z" />
				<linearGradient id="XMLID_18_" gradientUnits="userSpaceOnUse" x1="3970.6738" y1="1965.2129" x2="4094.877" y2="1965.2129" gradientTransform="matrix(-0.4271 0 0 0.4271 2290.6377 -512.9031)">
					<stop offset="0" style="stop-color:#FFFFFF" />
					<stop offset="0.2442" style="stop-color:#EFF8FE" />
					<stop offset="0.7224" style="stop-color:#C4E5FC" />
					<stop offset="1" style="stop-color:#A8D9FB" /> </linearGradient>
				<path id="XMLID_139_" fill="url(#XMLID_18_)" d="M568.239,295.805c14.589-8.414,26.523-1.527,26.523,15.317
			c0,16.844-11.938,37.521-26.523,45.95c-14.591,8.42-26.523,1.523-26.523-15.316C541.713,324.911,553.648,304.234,568.239,295.805z
			" />
				<linearGradient id="SVGID_45_" gradientUnits="userSpaceOnUse" x1="1754.4805" y1="1965.5215" x2="1782.3486" y2="1965.5215" gradientTransform="matrix(0.4271 0 0 0.4271 -185.5804 -512.9031)">
					<stop offset="0" style="stop-color:#128BEB" />
					<stop offset="1" style="stop-color:#126BEB" /> </linearGradient>
				<path fill="url(#SVGID_45_)" d="M575.644,307.395c0,0.713,0,1.203,0,1.901c-0.258,0.138-0.494,0.261-0.735,0.384
				c-2.721,1.41-5.53,2.875-8.438,4.383c-0.135,0.071-0.272,0.139-0.407,0.228c-0.713,0.463-1.138,1.5-1.136,2.758
				c0.004,1.231,0.449,1.861,1.153,1.486c2.562-1.372,5.051-2.738,7.477-4.056c0.682-0.373,1.359-0.738,2.067-1.125
				c0,2.019,0,3.896,0,5.771c-1.322,1.234-1.65,2.283-1.452,4.854c-0.461,0.766-0.962,1.515-1.421,2.406
				c-0.26,0.51-0.521,1.237-0.637,1.91c-0.365,2.198-0.645,4.43-1.003,6.646c-0.169,1.024-0.426,2.063-0.688,3.054
				c-0.485,1.772-0.339,3.019,0.188,4.192c-1.348,0.933-2.6,1.683-3.86,2.698c-2.759,2.229-3.04-0.099-3.008-4.296
				c0.062-7.445,0.021-14.838,0.021-22.248c0-3.392,0.715-5.265,2.311-6.074c3.051-1.56,5.997-3.057,8.847-4.504
				C575.143,307.65,575.364,307.539,575.644,307.395z" />
				<linearGradient id="SVGID_46_" gradientUnits="userSpaceOnUse" x1="1770.6777" y1="1979.7012" x2="1785.4756" y2="1979.7012" gradientTransform="matrix(0.4271 0 0 0.4271 -185.5804 -512.9031)">
					<stop offset="0" style="stop-color:#128BEB" />
					<stop offset="1" style="stop-color:#126BEB" /> </linearGradient>
				<path fill="url(#SVGID_46_)" d="M570.658,339.793c0.045-0.357,0.035-0.838,0.141-1.066c0.756-1.738,0.772-3.733,1.107-5.602
				c0.088-0.479,0.184-0.975,0.209-1.439c0.212-3.278,1.137-5.437,2.563-7.021c0.688,1.132,1.426,2.351,2.15,3.577
				c0.077,0.129,0.153,0.352,0.15,0.576c-0.013,1.271-0.933,4.521-1.495,5.34c-0.772,1.119-1.568,2.188-2.343,3.408
				c-0.445,0.703-0.841,1.653-1.269,2.463c-0.166,0.313-0.364,0.521-0.623,0.561c1.063-3.033,2.116-6.044,3.163-8.99
				c0.09-0.252,0.297-0.316,0.385-0.567c0.187-0.532,0.438-1.189,0.45-1.679c0.009-0.391-0.309-0.914-0.479-0.813
				c-0.224,0.133-0.483,0.794-0.659,1.329c-0.21,0.647-0.311,1.453-0.522,2.094c-0.896,2.64-1.814,5.271-2.744,7.942
				C570.784,339.864,570.72,339.831,570.658,339.793z" />
				<linearGradient id="SVGID_47_" gradientUnits="userSpaceOnUse" x1="1780.0879" y1="1959.916" x2="1789.3477" y2="1959.916" gradientTransform="matrix(0.4271 0 0 0.4271 -185.5804 -512.9031)">
					<stop offset="0" style="stop-color:#128BEB" />
					<stop offset="1" style="stop-color:#126BEB" /> </linearGradient>
				<path fill="url(#SVGID_47_)" d="M575.244,320.426c0.262,0.215,0.469,0.291,0.617,0.532c0.837,1.321,1.649,2.676,2.471,3.997
				c0.3,0.484,0.436,1.172,0.11,2.141c-0.349,1.041-0.703,0.994-1.027,0.469c-0.831-1.354-1.694-2.664-2.519-4.106
				c-0.163-0.286-0.26-1.01-0.206-1.547C574.736,321.447,575.033,320.963,575.244,320.426z" />
				<linearGradient id="SVGID_48_" gradientUnits="userSpaceOnUse" x1="1774.0371" y1="1992.4492" x2="1782.3301" y2="1992.4492" gradientTransform="matrix(0.4271 0 0 0.4271 -185.5804 -512.9031)">
					<stop offset="0" style="stop-color:#128BEB" />
					<stop offset="1" style="stop-color:#126BEB" /> </linearGradient>
				<path fill="url(#SVGID_48_)" d="M575.634,335.12c0,1.271,0,2.294,0,3.453c-1.112,0.771-2.234,1.55-3.542,2.45
				C573.166,338.073,574.49,337.145,575.634,335.12z" /> </g>
			<linearGradient id="XMLID_19_" gradientUnits="userSpaceOnUse" x1="3815.1211" y1="1911.0518" x2="3890.9004" y2="1911.0518" gradientTransform="matrix(-0.4271 0 0 0.4271 2290.6377 -512.9031)">
				<stop offset="0" style="stop-color:#128BEB" />
				<stop offset="1" style="stop-color:#126BEB" /> </linearGradient>
			<path id="XMLID_138_" fill="url(#XMLID_19_)" d="M645.018,284.621c8.9-5.141,16.182-0.934,16.182,9.344
			c0,10.275-7.277,22.893-16.182,28.028c-8.9,5.139-16.184,0.938-16.184-9.341C628.832,302.373,636.115,289.76,645.018,284.621z" />
			<linearGradient id="XMLID_20_" gradientUnits="userSpaceOnUse" x1="3810.1738" y1="1912.2852" x2="3885.9658" y2="1912.2852" gradientTransform="matrix(-0.4271 0 0 0.4271 2290.6377 -512.9031)">
				<stop offset="0" style="stop-color:#FFFFFF" />
				<stop offset="0.2442" style="stop-color:#EFF8FE" />
				<stop offset="0.7224" style="stop-color:#C4E5FC" />
				<stop offset="1" style="stop-color:#A8D9FB" /> </linearGradient>
			<path id="XMLID_137_" fill="url(#XMLID_20_)" d="M647.128,285.146c8.898-5.139,16.185-0.937,16.185,9.345
			c0,10.28-7.282,22.893-16.185,28.032c-8.903,5.138-16.187,0.932-16.187-9.348C630.943,302.902,638.225,290.287,647.128,285.146z" />
			<g>
				<g>
					<linearGradient id="SVGID_49_" gradientUnits="userSpaceOnUse" x1="1938.2314" y1="1913.1777" x2="1961.2178" y2="1913.1777" gradientTransform="matrix(0.4271 0 0 0.4271 -185.5804 -512.9031)">
						<stop offset="0" style="stop-color:#128BEB" />
						<stop offset="1" style="stop-color:#126BEB" /> </linearGradient>
					<path fill="url(#SVGID_49_)" d="M642.436,314.775l-0.218-2.612c0.153-0.123,0.313-0.261,0.479-0.403v-11.373l-0.372,0.219
					v-2.401l3.977-2.269v2.354l-0.407,0.237v10.166c0.228-0.235,0.458-0.479,0.696-0.726c-0.029,0.882-0.054,1.744-0.07,2.601
					c-0.203,0.209-0.414,0.427-0.624,0.646v3.563l-1.177,0.783v-3.145C644.007,313.148,643.246,313.934,642.436,314.775z
					 M643.91,301.781l0.805-0.477v-2.095l-0.805,0.466V301.781z M643.91,306.066l0.805-0.494v-2.092l-0.805,0.48V306.066z
					 M644.714,309.859v-2.115l-0.802,0.507v2.383C644.172,310.391,644.439,310.133,644.714,309.859z M646.179,305.253l5.856-3.621
					v1.938l-3.385,2.125l-0.084,1l2.901-1.838c-0.017,1.01-0.044,2.14-0.073,3.393c-0.063,1.62-0.545,2.784-1.451,3.49l-1.896,1.259
					c-0.135-1.043-0.238-1.763-0.303-2.158c0.699-0.399,1.346-0.803,1.93-1.196c0.324-0.211,0.488-0.621,0.497-1.228
					c0.013-0.242,0.021-0.537,0.025-0.877l-3.068,1.978l0.295-3.05l-1.246,0.786L646.179,305.253L646.179,305.253z M646.576,296.275
					l1.923-1.105v-1.596l1.244-0.704v1.591l1.852-1.063v7.595l-5.019,3.077V296.275L646.576,296.275z M647.629,298.742l0.869-0.512
					v-1.24l-0.869,0.502V298.742z M647.629,301.6l0.869-0.521v-1.247l-0.869,0.521V301.6z M650.594,295.768l-0.85,0.494v1.231
					l0.85-0.496V295.768z M650.594,299.809v-1.229l-0.85,0.509v1.238L650.594,299.809z" /> </g>
			</g>
		</g>
		<g> </g>
	</g>
</svg>